<?xml version="1.0" standalone="no"?>
<!DOCTYPE svg PUBLIC "-//W3C//DTD SVG 1.1//EN" "http://www.w3.org/Graphics/SVG/1.1/DTD/svg11.dtd" >
<svg xmlns="http://www.w3.org/2000/svg">
<metadata></metadata>
<defs>
<font id="jubilatbold" horiz-adv-x="1024" >
<font-face units-per-em="2048" ascent="1536" descent="-512" />
<missing-glyph horiz-adv-x="487" />
<glyph unicode="&#xfb01;" horiz-adv-x="1316" d="M16 795v209h123v18q0 211 86 295t287 84q104 0 201 -41v-197q-8 4 -62 4q-80 -5 -106 -35t-23 -128h418q148 0 254 24v-756q0 -36 8.5 -49.5t30.5 -13.5h47v-209h-582v209h54q23 0 32 13.5t9 49.5v441q0 46 -9.5 64t-35.5 18h-216v-523q0 -39 9.5 -51t33.5 -12h72v-209 h-614v209h65q22 0 31.5 12t9.5 51v523h-123zM776 1243q0 84 58 136.5t153 52.5t153 -52.5t58 -136.5t-58 -136t-153 -52t-153 52t-58 136z" />
<glyph unicode="&#xfb02;" horiz-adv-x="1310" d="M16 795v209h123v10q0 113 21.5 187t70.5 118.5t121.5 63t182.5 18.5q29 0 119.5 -11t146.5 -24h393v-1094q0 -39 9 -51t30 -12h45v-209h-578v209h54q22 0 31.5 12t9.5 51v813q0 51 -17 75t-69 24h-43q-81 0 -113.5 -37.5t-36.5 -142.5h170v-209h-154v-523q0 -39 9.5 -51 t33.5 -12h72v-209h-614v209h65q22 0 31.5 12t9.5 51v523h-123z" />
<glyph unicode="&#xfb03;" horiz-adv-x="1955" d="M16 795v209h123v18q0 209 89 294t292 85q60 0 122 -13.5t95 -27.5v-197q-8 4 -61 4q-82 -5 -114 -36t-38 -127h254v18q0 211 85 295t286 84q110 0 201 -41v-197q-6 4 -60 4q-55 -3 -81.5 -15.5t-39 -46.5t-10.5 -101h418q150 0 256 24v-756q0 -36 8.5 -49.5t30.5 -13.5 h51v-209h-586v209h56q22 0 30.5 13.5t8.5 49.5v441q0 46 -10 64t-36 18h-217v-523q0 -39 10.5 -51t34.5 -12h70v-209h-606v209h59q21 0 31 12.5t10 50.5v523h-246v-523q0 -39 9.5 -51t33.5 -12h56v-209h-598v209h65q22 0 31.5 12t9.5 51v523h-123zM1421 1243 q0 84 57.5 136.5t153.5 52.5q94 0 152.5 -53t58.5 -136t-58.5 -135.5t-152.5 -52.5q-96 0 -153.5 52t-57.5 136z" />
<glyph unicode="&#xfb04;" horiz-adv-x="1949" d="M16 795v209h123v18q0 209 89 294t292 85q60 0 122 -13.5t95 -27.5v-197q-8 4 -61 4q-82 -5 -114 -36t-38 -127h254v10q0 113 21.5 187t70.5 118.5t121.5 63t182.5 18.5q29 0 119 -11t145 -24h393v-1094q0 -39 9.5 -51t31.5 -12h43v-209h-578v209h56q21 0 30 12t9 51v805 q0 52 -16.5 75.5t-67.5 23.5h-43q-81 0 -113.5 -35.5t-36.5 -136.5h168v-209h-154v-523q0 -39 10.5 -51t34.5 -12h70v-209h-606v209h59q21 0 31 12.5t10 50.5v523h-246v-523q0 -39 9.5 -51t33.5 -12h56v-209h-598v209h65q22 0 31.5 12t9.5 51v523h-123z" />
<glyph horiz-adv-x="2048" />
<glyph horiz-adv-x="2048" />
<glyph unicode="&#xd;" horiz-adv-x="2048" />
<glyph unicode=" "  horiz-adv-x="487" />
<glyph unicode="&#x09;" horiz-adv-x="487" />
<glyph unicode="&#xa0;" horiz-adv-x="487" />
<glyph unicode="!" horiz-adv-x="538" d="M63 1036v324h416v-324q0 -42 -4.5 -87.5t-16 -98t-20 -89t-27 -95.5t-25.5 -82t-28.5 -84.5t-23.5 -67.5h-125q-4 12 -23.5 68.5t-28.5 83t-26.5 82.5t-26.5 95t-20 90t-16 97t-5 88zM68 164q0 86 55.5 139t144.5 53t145 -53t56 -139t-56 -139.5t-145 -53.5 q-90 0 -145 53t-55 140z" />
<glyph unicode="&#x22;" horiz-adv-x="872" d="M49 1198v162h350v-162q0 -139 -125 -440h-98q-127 306 -127 440zM473 1198v162h352v-162q0 -122 -125 -440h-100q-127 306 -127 440z" />
<glyph unicode="#" horiz-adv-x="1265" d="M41 279v274h188l78 254h-155v274h237l86 279h219l-86 -279h291l86 279h219l-86 -279h107v-274h-189l-78 -254h156v-274h-240l-83 -279h-220l84 279h-290l-84 -279h-220l84 279h-104zM449 553h290l78 254h-291z" />
<glyph unicode="$" horiz-adv-x="1107" d="M20 336q0 93 52 148t141 55q73 0 121.5 -45t48.5 -111q0 -63 -41 -111q71 -36 178 -36q95 0 149 37t54 104q0 26 -6.5 45.5t-24.5 35t-35 25.5t-53.5 21t-63 17l-79.5 18q-63 14 -114.5 31t-110 48.5t-98 71t-65.5 101.5t-26 137q0 168 111 277t301 136v150h211v-145 q195 -13 292 -86t97 -191q0 -87 -50.5 -138.5t-136.5 -51.5q-70 0 -117.5 43t-47.5 106q0 56 34 96q-81 33 -159 33q-86 0 -138.5 -36t-52.5 -95q0 -45 29.5 -72.5t63.5 -37.5t120 -28l7.5 -1.5t7 -1.5t8.5 -2q65 -12 122 -29.5t119 -50t106 -73.5t72.5 -104t28.5 -139 q0 -181 -105.5 -292.5t-299.5 -141.5v-180h-211v174q-218 10 -328.5 85t-110.5 204z" />
<glyph unicode="%" horiz-adv-x="1556" d="M23 1042q0 155 99 252t271 97q169 0 266 -97t97 -252q0 -158 -99.5 -255t-271.5 -97q-168 0 -265 96.5t-97 255.5zM129 0l561 731l475 629h260l-483 -629l-551 -731h-262zM295 1030q0 -102 19.5 -137t72.5 -35q54 0 74 35.5t20 136.5v23q0 99 -19.5 134.5t-72.5 35.5 t-73.5 -36t-20.5 -134v-23zM801 319q0 156 99.5 253.5t270.5 97.5q169 0 266 -96.5t97 -254.5q0 -156 -99.5 -253t-271.5 -97q-168 0 -265 97t-97 253zM1075 307q0 -99 20 -134.5t74 -35.5q53 0 73 36t20 134v23q0 101 -20 136.5t-73 35.5q-54 0 -74 -35.5t-20 -136.5v-23z " />
<glyph unicode="&#x26;" horiz-adv-x="1679" d="M37 399q0 158 90 259.5t246 144.5q-70 114 -70 221q0 165 122.5 267t350.5 102q179 0 282 -90t103 -234q0 -126 -78 -203.5t-229 -103.5l225 -305q102 109 144 194h-111v197h500v-197h-99q-143 -178 -315 -344q58 -55 119 -55q52 0 67 18.5t15 63.5v67h213v-98 q0 -173 -83.5 -252.5t-266.5 -79.5q-94 0 -174 29.5t-160 97.5q-177 -127 -381 -127q-250 0 -380 117.5t-130 310.5zM383 451q0 -113 68.5 -179.5t179.5 -66.5q77 0 157 39q-31 37 -67 88l-186 248q-7 11 -62 79q-90 -80 -90 -208zM670 1073q0 -49 18.5 -90.5t59.5 -91.5 q78 22 117.5 66t39.5 116q0 61 -30.5 96t-86.5 35q-57 0 -87.5 -34.5t-30.5 -96.5z" />
<glyph unicode="'" horiz-adv-x="450" d="M49 1198v162h350v-162q0 -139 -125 -440h-98q-127 306 -127 440z" />
<glyph unicode="(" horiz-adv-x="819" d="M47 494v22q0 131 24 249t79 226t136.5 187.5t204 128.5t273.5 53h37v-209h-17q-146 -9 -234.5 -163t-88.5 -441v-82q0 -287 88.5 -443t234.5 -165h17v-209h-37q-151 4 -273.5 53t-204 129t-136.5 188.5t-79 226.5t-24 249z" />
<glyph unicode=")" horiz-adv-x="819" d="M18 -143h15q147 9 235 164.5t88 443.5v82q0 288 -87.5 441.5t-235.5 162.5h-15v209h37q151 -4 273.5 -53t204 -128.5t136.5 -187.5t79 -226t24 -249v-22q0 -131 -24 -249t-79 -226.5t-136.5 -188.5t-204 -129t-273.5 -53h-37v209z" />
<glyph unicode="*" horiz-adv-x="796" d="M29 901l221 94l-219 90l104 183l193 -146l-31 238h209l-31 -236l187 144l104 -183l-219 -90l221 -94l-102 -182l-191 143l31 -233h-209l31 237l-197 -147z" />
<glyph unicode="+" horiz-adv-x="1011" d="M68 373v258h301v309h274v-309h301v-258h-301v-310h-274v310h-301z" />
<glyph unicode="," horiz-adv-x="530" d="M20 -8q55 -19 109 -19q113 0 133 74q-28 -4 -45 -4q-79 0 -127.5 45.5t-48.5 124.5q0 83 57 135.5t148 52.5q105 0 179.5 -75.5t74.5 -198.5q0 -154 -92.5 -246t-247.5 -92q-75 0 -140 21v182z" />
<glyph unicode="-" horiz-adv-x="659" d="M41 365v274h582v-274h-582z" />
<glyph unicode="." horiz-adv-x="530" d="M43 186q0 96 61 155.5t162 59.5q100 0 161.5 -60t61.5 -155q0 -97 -61.5 -156t-161.5 -59q-101 0 -162 59t-61 156z" />
<glyph unicode="/" horiz-adv-x="894" d="M20 0l521 1360h333l-520 -1360h-334z" />
<glyph unicode="0" horiz-adv-x="1351" d="M43 680q0 341 165 525t472 184q302 0 465.5 -184t163.5 -525q0 -342 -164.5 -525.5t-470.5 -183.5t-468.5 183t-162.5 526zM467 559q0 -191 47.5 -272.5t161.5 -81.5q113 0 162 82.5t49 271.5v242q0 189 -48.5 270.5t-160.5 81.5q-114 0 -162.5 -81.5t-48.5 -270.5v-242z " />
<glyph unicode="1" horiz-adv-x="903" d="M61 883v241h62q62 0 103 12.5t70 44t47 72t38 109.5h307v-1090q0 -37 10 -50t31 -13h148v-209h-795v209h166q22 0 31.5 12.5t9.5 50.5v631q-64 -20 -152 -20h-76z" />
<glyph unicode="2" horiz-adv-x="1232" d="M45 0l6 131q8 110 51.5 200t107 148.5t138.5 106.5t148.5 86.5t134 76t98 86t37.5 107.5q0 103 -54.5 158t-158.5 55q-95 0 -158 -49q51 -22 80 -67t29 -103q0 -83 -58.5 -140t-150.5 -57q-106 0 -173 66.5t-67 181.5q0 184 150.5 293t423.5 109q276 0 421.5 -116.5 t145.5 -334.5q0 -99 -36 -174t-97 -121.5t-135.5 -81t-157.5 -61.5t-157.5 -53.5t-140.5 -66t-101 -89.5h444q63 0 84.5 16t24.5 68l10 92h229v-467h-1118z" />
<glyph unicode="3" horiz-adv-x="1196" d="M20 309q0 108 63.5 171t162.5 63q80 0 136 -50t56 -124q0 -43 -20 -81.5t-53 -62.5q65 -30 157 -30q100 0 156.5 48t56.5 138v16q0 178 -213 178q-25 0 -47 -2t-40.5 -5t-22.5 -3v260q57 -14 120 -14q87 0 140 45.5t53 116.5v16q0 86 -53 130t-146 44q-88 0 -159 -33 q69 -52 69 -135q0 -72 -53 -120t-133 -48q-95 0 -154 55t-59 158q0 165 148.5 258t400.5 93q557 0 557 -367q0 -104 -70.5 -179.5t-202.5 -105.5q299 -75 299 -354q0 -199 -163 -306.5t-449 -107.5q-251 0 -394 84.5t-143 253.5z" />
<glyph unicode="4" horiz-adv-x="1277" d="M23 360v224l546 776h525l-822 -774h377v202q60 0 122.5 23.5t108.5 57t83.5 67t56.5 56.5l20 24v-430h197v-226h-197v-77q0 -44 10.5 -59t39.5 -15h73v-209h-639v209h68q28 0 38.5 15t10.5 59v77h-618z" />
<glyph unicode="5" horiz-adv-x="1161" d="M23 305q0 111 61.5 174.5t165.5 63.5q89 0 140.5 -48t51.5 -126q0 -93 -73 -142q56 -22 149 -22q108 0 156.5 60.5t48.5 183.5v30q0 217 -184 217q-85 0 -129.5 -30t-63.5 -84h-276l86 778h970q-17 -75 -43 -127t-60.5 -85.5t-86.5 -52t-111.5 -25.5t-146.5 -7h-295 l-31 -238q110 113 314 113q220 0 344.5 -118t124.5 -333q0 -246 -153 -381t-437 -135q-245 0 -383.5 87t-138.5 247z" />
<glyph unicode="6" horiz-adv-x="1261" d="M37 678q0 339 177 525t505 186q485 0 485 -297q0 -105 -59 -160t-172 -55q-84 0 -136.5 50.5t-52.5 129.5q0 42 27 84q-36 4 -61 4q-173 0 -239.5 -87t-66.5 -310q0 -15 5 -50q40 76 127.5 118t205.5 42q217 0 335 -111.5t118 -306.5q0 -219 -151 -344t-420 -125 q-305 0 -466 183.5t-161 523.5zM461 395q0 -91 47.5 -141.5t136.5 -50.5t139 50.5t50 141.5v39q0 91 -48.5 142t-136.5 51q-90 0 -139 -51t-49 -142v-39z" />
<glyph unicode="7" horiz-adv-x="1165" d="M39 825v535h270q89 0 164.5 -16t131.5 -44.5t96.5 -55.5t85 -60.5t71.5 -48.5l-18 225h309l-6 -109q-7 -111 -35 -208.5t-67 -175t-110.5 -177.5t-139.5 -183.5t-182.5 -228.5t-211.5 -278h-207l17 82q30 171 80.5 302t128 234t172 180.5t227.5 155.5q-67 -12 -149 -12 q-230 0 -385 121v-238h-242z" />
<glyph unicode="8" horiz-adv-x="1220" d="M33 340q0 95 67.5 165t180.5 105q-108 48 -170 130t-62 218q0 191 150 311t413 120q120 0 214.5 -19t155 -51.5t100.5 -78.5t56.5 -96.5t16.5 -109.5q0 -93 -61.5 -159.5t-169.5 -96.5q124 -50 197 -136.5t73 -229.5q0 -198 -157 -319.5t-433 -121.5q-156 0 -270 29.5 t-178 82.5t-93.5 116.5t-29.5 140.5zM401 352q0 -76 54.5 -121t146.5 -45q88 0 141.5 44t53.5 116q0 43 -20.5 76t-60 56t-84.5 38t-108 29q-123 -66 -123 -193zM436 1028q0 -74 61.5 -118t174.5 -72q131 59 131 188q0 76 -48 117t-132 41q-87 0 -137 -41.5t-50 -114.5z" />
<glyph unicode="9" horiz-adv-x="1269" d="M35 907q0 223 153.5 352.5t425.5 129.5q305 0 462 -183t157 -524t-169.5 -527t-492.5 -186q-501 0 -501 285q0 105 58.5 159t166.5 54q89 0 141.5 -50.5t52.5 -131.5q0 -40 -18 -70q55 -10 102 -10q140 0 195 80t55 280q0 41 -2 66q-36 -71 -116 -111.5t-197 -40.5 q-227 0 -350 113.5t-123 314.5zM436 907q0 -90 48.5 -142t136.5 -52q90 0 139 51.5t49 142.5v56q0 92 -48 143t-136 51q-90 0 -139.5 -52t-49.5 -142v-56z" />
<glyph unicode=":" horiz-adv-x="530" d="M43 186q0 96 61 155.5t162 59.5q100 0 161.5 -60t61.5 -155q0 -97 -61.5 -156t-161.5 -59q-101 0 -162 59t-61 156zM43 756q0 97 61 156t162 59q100 0 161.5 -59t61.5 -156t-61.5 -156t-161.5 -59q-101 0 -162 59t-61 156z" />
<glyph unicode=";" horiz-adv-x="530" d="M20 -8q55 -19 109 -19q113 0 133 74q-28 -4 -45 -4q-79 0 -127.5 45.5t-48.5 124.5q0 83 57 135.5t148 52.5q105 0 179.5 -75.5t74.5 -198.5q0 -154 -92.5 -246t-247.5 -92q-75 0 -140 21v182zM43 756q0 97 61 156t162 59q100 0 161.5 -59t61.5 -156t-61.5 -156 t-161.5 -59q-101 0 -162 59t-61 156z" />
<glyph unicode="&#x3c;" horiz-adv-x="1009" d="M90 424v156l830 401v-283l-420 -196l420 -197v-282z" />
<glyph unicode="=" horiz-adv-x="1011" d="M61 176v242h889v-242h-889zM61 586v241h889v-241h-889z" />
<glyph unicode="&#x3e;" horiz-adv-x="1009" d="M100 23v282l418 197l-418 196v283l828 -401v-156z" />
<glyph unicode="?" horiz-adv-x="1073" d="M39 989q0 183 133 291.5t367 108.5q246 0 382 -108t136 -296q0 -80 -26 -143.5t-66 -102.5t-96.5 -77t-110.5 -66t-114.5 -72t-102.5 -92h-125v27q2 61 18 113t39 89t50.5 69t54 59.5t49 54t36 58.5t13.5 67q0 182 -195 182q-99 0 -162 -53q65 -13 104.5 -62t39.5 -112 q0 -73 -57.5 -122.5t-141.5 -49.5q-99 0 -162 65.5t-63 171.5zM309 164q0 86 55.5 139t143.5 53q91 0 147 -53t56 -139t-56 -139.5t-147 -53.5q-89 0 -144 53.5t-55 139.5z" />
<glyph unicode="@" horiz-adv-x="1540" d="M66 592q0 229 95.5 410.5t273.5 285t407 103.5q107 0 203 -20t180 -64t145 -107.5t96 -156.5t35 -205q0 -221 -128.5 -361.5t-336.5 -140.5q-92 0 -152 35.5t-69 97.5q-38 -53 -93.5 -85t-117.5 -32q-94 0 -150.5 63t-56.5 163q0 105 41.5 201.5t123 160.5t183.5 64 q61 0 103 -32.5t57 -88.5l31 104h96q92 0 144 17l-109 -410q-14 -63 -14 -66q0 -25 19 -39t48 -14q56 0 102.5 33.5t75.5 86t44.5 112t15.5 116.5q0 109 -41 195t-112.5 140t-163.5 82t-197 28q-186 0 -331 -87.5t-223.5 -237.5t-78.5 -335q0 -240 155.5 -379t399.5 -139 q128 0 245.5 45t205.5 133l98 -94q-104 -104 -247 -155.5t-300 -51.5q-118 0 -222.5 24.5t-192.5 76t-152 124.5t-99.5 175.5t-35.5 224.5zM635 580q0 -38 20.5 -61t51.5 -23q41 0 77 44.5t56 109.5t20 128q0 37 -19 59.5t-50 22.5q-61 0 -108.5 -89t-47.5 -191z" />
<glyph unicode="A" horiz-adv-x="1529" d="M18 0v209h62q34 0 47 13.5t31 60.5l407 1079h418l391 -1079q15 -42 33 -58t51 -16h51v-209h-688v209h58q35 0 45 15.5t-2 56.5l-58 153h-381l-53 -153q-12 -43 -2 -57.5t47 -14.5h55v-209h-512zM541 627h272l-135 397z" />
<glyph unicode="B" horiz-adv-x="1345" d="M25 0v209h71q27 0 38 17t11 57v796q0 40 -10.5 56t-38.5 16h-71v209h696q303 0 428 -77t125 -261q0 -246 -291 -305q334 -53 334 -334q0 -202 -143.5 -292.5t-477.5 -90.5h-671zM567 209h115q110 0 157.5 45.5t47.5 151.5q0 110 -48 155t-163 45h-109v-397zM567 784h90 q102 0 148.5 43.5t46.5 141.5q0 97 -41.5 139.5t-136.5 42.5h-107v-367z" />
<glyph unicode="C" horiz-adv-x="1374" d="M35 676q0 324 176.5 518.5t468.5 194.5q274 0 364 -195l66 166h219v-539h-334q-19 154 -76.5 224.5t-166.5 70.5q-140 0 -203.5 -95.5t-63.5 -303.5v-68q0 -223 66 -316t205 -93q121 0 189 67t83 209l313 -55q-12 -109 -52.5 -196.5t-112.5 -154.5t-185 -103t-260 -36 q-330 0 -513 183.5t-183 521.5z" />
<glyph unicode="D" horiz-adv-x="1482" d="M25 0v209h71q29 0 39 15t10 59v796q0 43 -10 57.5t-39 14.5h-71v209h690q375 0 551 -167.5t176 -516.5q0 -676 -744 -676h-673zM580 209h133q153 0 214.5 97.5t61.5 324.5v92q0 230 -60.5 329t-211.5 99h-137v-942z" />
<glyph unicode="E" horiz-adv-x="1277" d="M25 0v209h71q29 0 39 14.5t10 57.5v798q0 43 -10 57.5t-39 14.5h-71v209h1183v-387h-198l-37 94q-26 54 -58 69t-114 15h-228v-360h113q41 0 56.5 18t15.5 68v49h184v-488h-184v51q0 51 -16.5 73t-55.5 22h-113v-375h246q84 0 113.5 13.5t56.5 70.5l37 94h199v-387h-1200 z" />
<glyph unicode="F" horiz-adv-x="1220" d="M25 0v209h71q29 0 39 14.5t10 57.5v798q0 43 -10 57.5t-39 14.5h-71v209h1144v-387h-200l-35 94q-26 57 -57 70.5t-115 13.5h-184v-401h124q41 0 56.5 18.5t15.5 69.5v49h184v-488h-184v50q0 52 -15.5 73t-56.5 21h-124v-262q0 -42 10.5 -57t38.5 -15h88v-209h-690z" />
<glyph unicode="G" horiz-adv-x="1411" d="M35 678q0 330 168.5 520.5t460.5 190.5q290 0 385 -203l63 174h231v-520h-331q-22 138 -84.5 206t-175.5 68q-267 0 -267 -397v-68q0 -227 58.5 -322.5t195.5 -95.5q97 0 152 54t55 151v45h-231v209h628v-690h-159l-103 201q-97 -230 -428 -230q-298 0 -458 183.5 t-160 523.5z" />
<glyph unicode="H" horiz-adv-x="1556" d="M25 0v209h71q29 0 39 15t10 59v796q0 43 -10 57.5t-39 14.5h-71v209h665v-209h-63q-28 0 -38.5 -15t-10.5 -57v-291h401v291q0 43 -9.5 57.5t-37.5 14.5h-66v209h666v-209h-72q-28 0 -38.5 -15t-10.5 -57v-796q0 -44 10.5 -59t38.5 -15h72v-209h-666v209h66q28 0 37.5 15 t9.5 59v309h-401v-309q0 -44 10.5 -59t38.5 -15h63v-209h-665z" />
<glyph unicode="I" horiz-adv-x="741" d="M35 0v209h71q28 0 38 15t10 59v796q0 42 -10 57t-38 15h-71v209h672v-209h-72q-28 0 -38.5 -15t-10.5 -57v-796q0 -44 10.5 -59t38.5 -15h72v-209h-672z" />
<glyph unicode="J" horiz-adv-x="872" d="M29 18v218q64 -33 139 -33q76 0 105.5 37.5t29.5 126.5v712q0 43 -8 57.5t-31 14.5h-82v209h666v-209h-64q-28 0 -38.5 -15t-10.5 -57v-712q0 -205 -102 -300.5t-322 -95.5q-183 0 -282 47z" />
<glyph unicode="K" horiz-adv-x="1515" d="M25 0v209h71q29 0 39 15t10 59v796q0 43 -10 57.5t-39 14.5h-71v209h667v-209h-63q-29 0 -39 -14.5t-10 -57.5v-346q322 327 335 340q27 28 19.5 53t-39.5 25h-70v209h627v-209h-53q-28 1 -49 -10t-58 -45l-250 -234l334 -602q16 -27 32.5 -39t43.5 -12h41v-209h-696v209 h57q26 0 26 18q0 10 -8 27l-172 317l-120 -120v-168q0 -44 10 -59t39 -15h63v-209h-667z" />
<glyph unicode="L" horiz-adv-x="1212" d="M25 0v209h71q29 0 39 15t10 59v796q0 43 -10 57.5t-39 14.5h-71v209h690v-209h-88q-28 0 -38.5 -15t-10.5 -57v-870h118q94 0 126 14.5t52 69.5l60 201h225v-494h-1134z" />
<glyph unicode="M" horiz-adv-x="1865" d="M25 0v209h88q29 0 39 15t10 59v796q0 43 -10 57.5t-39 14.5h-88v209h725l190 -655l195 655h706v-209h-72q-29 0 -39 -14.5t-10 -57.5v-796q0 -44 10 -59t39 -15h72v-209h-665v209h71q28 0 38.5 15t10.5 59v786l-319 -1069h-266l-299 1059v-776q0 -44 10.5 -59t38.5 -15 h86v-209h-522z" />
<glyph unicode="N" horiz-adv-x="1505" d="M29 0v209h88q28 0 37.5 14.5t9.5 57.5v798q0 43 -9.5 57.5t-37.5 14.5h-88v209h546l521 -723v442q0 42 -10.5 57t-38.5 15h-86v209h522v-209h-88q-28 0 -38.5 -15t-10.5 -57v-1079h-289l-641 885v-604q0 -43 9.5 -57.5t37.5 -14.5h88v-209h-522z" />
<glyph unicode="O" horiz-adv-x="1501" d="M35 678q0 323 199 517t530 194q330 0 518 -191t188 -520q0 -323 -195 -515t-525 -192q-335 0 -525 190.5t-190 516.5zM485 633q0 -219 66 -315.5t205 -96.5t204.5 97t65.5 315v90q0 220 -65.5 319t-202.5 99q-140 0 -206.5 -99t-66.5 -319v-90z" />
<glyph unicode="P" horiz-adv-x="1312" d="M25 0v209h71q29 0 39 15t10 59v796q0 43 -10 57.5t-39 14.5h-71v209h708q280 0 413.5 -101.5t133.5 -314.5q0 -218 -131 -318t-418 -100h-153v-243q0 -44 10.5 -59t38.5 -15h88v-209h-690zM578 729h102q100 0 144 50t44 163q0 112 -43.5 159.5t-146.5 47.5h-100v-420z " />
<glyph unicode="Q" horiz-adv-x="1501" d="M35 684q0 322 198.5 513.5t530.5 191.5q331 0 518.5 -188.5t187.5 -516.5q0 -233 -117.5 -403t-314.5 -246l2 -31q3 -62 27.5 -82t87.5 -20h150v-209h-412q-144 34 -216 107t-106 200q-255 46 -395.5 225t-140.5 459zM485 621q0 -203 67 -301.5t204 -98.5t203.5 99 t66.5 301v114q0 406 -268 406q-273 0 -273 -406v-114z" />
<glyph unicode="R" horiz-adv-x="1394" d="M25 0v209h71q28 0 38.5 15.5t10.5 58.5v796q0 41 -10.5 56.5t-38.5 15.5h-71v209h778q250 0 375 -91t125 -288q0 -255 -283 -324q134 -36 193 -122t67 -234q3 -51 19.5 -71.5t54.5 -20.5h28v-209h-319q-61 0 -108 29t-76 81.5t-45.5 114.5t-22.5 137q-8 107 -42.5 157 t-125.5 50h-74v-286q0 -43 10.5 -58.5t38.5 -15.5h72v-209h-665zM569 745h82q121 0 172 47t51 160q0 107 -46 152t-152 45h-107v-404z" />
<glyph unicode="S" horiz-adv-x="1220" d="M55 928q0 215 152.5 338t433.5 123q265 0 487 -95v-329h-317v165q-73 25 -166 25q-91 0 -139.5 -34t-48.5 -97q0 -24 5.5 -41.5t22 -32t31 -24t50 -21t59 -18t76.5 -19.5q26 -7 40 -10q76 -19 133 -39t117 -54.5t98 -77t62.5 -107t24.5 -144.5q0 -220 -145 -342.5 t-443 -122.5q-287 0 -522 103v342h319v-189q82 -30 197 -30q84 0 134 35.5t50 97.5q0 32 -10 55.5t-30 40t-51 28.5t-72.5 23t-94.5 24q-8 2 -13 3l-12.5 2.5t-13.5 3.5q-98 25 -168 55.5t-128.5 78.5t-88 119t-29.5 165z" />
<glyph unicode="T" horiz-adv-x="1341" d="M43 961v399h1255v-399h-196l-17 96q-10 60 -48 79t-132 19h-35v-872q0 -44 10.5 -59t39.5 -15h88v-209h-691v209h89q28 0 38.5 15t10.5 59v872h-21q-94 0 -131 -19t-47 -79l-16 -96h-197z" />
<glyph unicode="U" horiz-adv-x="1445" d="M25 1151v209h661v-209h-72q-28 0 -37.5 -14.5t-9.5 -57.5v-608q0 -145 56 -199.5t194 -54.5q119 0 174.5 63.5t55.5 198.5v600q0 43 -10.5 57.5t-39.5 14.5h-88v209h521v-209h-80q-28 0 -39 -15t-11 -57v-624q0 -248 -137 -366t-426 -118q-167 0 -278 24t-185 82 t-106.5 152t-32.5 236v614q0 42 -10.5 57t-38.5 15h-61z" />
<glyph unicode="V" horiz-adv-x="1529" d="M31 1151v209h712v-209h-59q-38 0 -47 -14t4 -58l225 -592l209 592q11 44 1 58t-46 14h-69v209h546v-209h-69q-36 0 -52.5 -14.5t-31.5 -59.5l-422 -1077h-332l-418 1077q-15 43 -32 58.5t-50 15.5h-69z" />
<glyph unicode="W" horiz-adv-x="2121" d="M23 1151v209h659v-209h-55q-35 0 -43 -14t4 -58l164 -553l172 555q11 43 2 56.5t-41 13.5h-64v209h627v-209h-64q-30 0 -38 -14.5t2 -55.5l186 -567l166 565q9 44 0 58t-41 14h-76v209h516v-209h-63q-36 0 -52 -14.5t-28 -59.5l-326 -1077h-330l-239 702l-238 -702h-329 l-330 1077q-14 44 -29 59t-47 15h-65z" />
<glyph unicode="X" horiz-adv-x="1474" d="M16 0v209h68q57 0 109 74l296 391l-321 403q-18 26 -28.5 38.5t-28 24t-35.5 11.5h-49v209h733v-209h-49q-27 0 -35.5 -20.5t12.5 -51.5l141 -196l144 194q20 28 12.5 51t-35.5 23h-78v209h582v-209h-61q-52 0 -111 -74l-299 -381l330 -413q4 -5 13 -16.5t13 -16.5 t11.5 -13t12.5 -12t12 -8.5t14.5 -6t15.5 -1.5h53v-209h-727v209h47q26 0 33.5 21t-14.5 53l-154 206l-147 -206q-19 -28 -11 -51t37 -23h78v-209h-584z" />
<glyph unicode="Y" horiz-adv-x="1417" d="M25 1151v209h696v-209h-55q-34 0 -41 -25.5t14 -60.5l160 -256l162 272q16 34 4 52t-45 18h-76v209h559v-209h-62q-34 0 -54 -15t-44 -55l-325 -510v-288q0 -44 10.5 -59t38.5 -15h88v-209h-690v209h88q29 0 39 15t10 59v276l-334 522q-27 40 -46.5 55t-51.5 15h-45z" />
<glyph unicode="Z" horiz-adv-x="1286" d="M35 0v199l694 952h-246q-134 0 -172 -123l-16 -92h-221l18 424h1145v-199l-694 -950h260q154 0 190 123l19 90h229l-18 -424h-1188z" />
<glyph unicode="[" horiz-adv-x="743" d="M96 -352v1712h613v-209h-181q-33 0 -44 -16.5t-11 -65.5v-1130q0 -49 11 -65.5t44 -16.5h181v-209h-613z" />
<glyph unicode="\" horiz-adv-x="894" d="M20 1360h334l520 -1360h-333z" />
<glyph unicode="]" horiz-adv-x="743" d="M35 -143h180q33 0 44 16.5t11 65.5v1130q0 49 -11 65.5t-44 16.5h-180v209h612v-1712h-612v209z" />
<glyph unicode="^" horiz-adv-x="1021" d="M205 1006l166 282h284l164 -282h-184l-125 133l-123 -133h-182z" />
<glyph unicode="_" horiz-adv-x="751" d="M0 -31h752v-209h-752v209z" />
<glyph unicode="`" d="M184 1212v148h353l176 -285h-150z" />
<glyph unicode="a" horiz-adv-x="1171" d="M29 242q0 184 206 275q110 48 354 90q12 2 35 6q29 5 44 8v55q0 81 -36 118t-120 37q-40 0 -80 -8q14 -44 14 -78q0 -72 -53 -119.5t-135 -47.5q-96 0 -147.5 46.5t-51.5 133.5q0 135 132 204.5t382 69.5q271 0 382.5 -79.5t111.5 -274.5v-406q0 -35 8.5 -49t30.5 -14h53 v-209h-397q-34 33 -53 66t-37 88q-37 -79 -131 -131t-203 -52q-143 0 -226 75.5t-83 195.5zM401 299q0 -45 29 -73.5t74 -28.5q80 0 122 54t42 146v74q-49 -8 -83 -15.5t-71.5 -21t-60 -31t-37.5 -44t-15 -60.5z" />
<glyph unicode="b" horiz-adv-x="1271" d="M6 1151v209h246q154 0 256 24v-536q86 184 315 184q194 0 307 -144.5t113 -385.5q0 -240 -119.5 -385.5t-318.5 -145.5q-270 0 -352 238l-29 -209h-320q5 40 5 340v737q0 43 -9 58.5t-32 15.5h-62zM508 483q0 -272 160 -272q159 0 159 272v37q0 273 -159 273 q-160 0 -160 -273v-37z" />
<glyph unicode="c" horiz-adv-x="1079" d="M25 506q0 246 150.5 386t414.5 140q230 0 352.5 -90t122.5 -256q0 -108 -58 -175t-159 -67q-89 0 -142 49.5t-53 122.5q0 66 36.5 111.5t103.5 60.5q-45 39 -142 39q-221 0 -221 -286v-47q0 -279 213 -279q80 0 131.5 38t83.5 114l205 -117q-114 -279 -471 -279 q-268 0 -417.5 140.5t-149.5 394.5z" />
<glyph unicode="d" horiz-adv-x="1273" d="M25 502q0 238 121 384t315 146q223 0 301 -160v205q0 43 -9 58.5t-32 15.5h-62v209h248q152 0 254 24v-1112q0 -39 9.5 -51t31.5 -12h45v-209h-442q0 4 -17 166q-76 -195 -325 -195q-199 0 -318.5 145.5t-119.5 385.5zM442 483q0 -272 160 -272t160 272v37 q0 273 -160 273t-160 -273v-37z" />
<glyph unicode="e" horiz-adv-x="1112" d="M25 504q0 239 149.5 383.5t400.5 144.5q257 0 384.5 -144.5t127.5 -418.5v-41h-653q4 -110 64.5 -164.5t167.5 -54.5q159 0 227 143l186 -133q-130 -248 -493 -248q-268 0 -414.5 145.5t-146.5 387.5zM428 600h281q-3 123 -33.5 174t-97.5 51q-73 0 -108.5 -52.5 t-41.5 -172.5z" />
<glyph unicode="f" horiz-adv-x="714" d="M16 795v209h123v18q0 211 86 295t287 84q61 0 116.5 -13t84.5 -28v-197q-8 4 -62 4q-55 -3 -81.5 -15.5t-39.5 -46.5q-10 -29 -10 -83v-18h162v-209h-150v-523q0 -39 9.5 -51t33.5 -12h72v-209h-614v209h65q22 0 31.5 12t9.5 51v523h-123z" />
<glyph unicode="g" horiz-adv-x="1228" d="M-6 -219q0 132 237 190q-194 56 -194 226q0 76 47.5 133.5t136.5 89.5q-139 86 -139 260q0 158 142 255t370 97q170 0 293 -57q25 83 77.5 127.5t127.5 44.5q72 0 117.5 -41t45.5 -105q0 -69 -34 -106t-97 -37q-77 0 -112 60l-19 -13q94 -91 94 -223q0 -164 -136 -253 t-376 -89q-129 0 -227 25q-28 -4 -39.5 -14t-11.5 -29q0 -30 24.5 -42t86.5 -12q77 0 234 3t220 3q171 0 256.5 -82.5t85.5 -222.5q0 -188 -152.5 -282.5t-478.5 -94.5q-219 0 -348 22t-180 62t-51 105zM289 -176q0 -47 65.5 -63.5t235.5 -16.5q177 0 254.5 25.5t77.5 80.5 q0 44 -29.5 60t-122.5 16h-371q-110 -31 -110 -102zM461 657q0 -145 119 -145q63 0 92.5 36t29.5 114v43q0 78 -29 114.5t-89 36.5q-123 0 -123 -154v-45z" />
<glyph unicode="h" horiz-adv-x="1269" d="M10 1151v209h248q152 0 254 24v-518q93 166 324 166q329 0 329 -399v-361q0 -39 9.5 -51t31.5 -12h54v-209h-578v209h43q22 0 31.5 12t9.5 51v346q0 87 -27 123.5t-90 36.5q-69 0 -103 -53.5t-34 -169.5v-283q0 -39 9.5 -51t31.5 -12h43v-209h-578v209h54q22 0 31.5 12 t9.5 51v805q0 43 -9 58.5t-32 15.5h-62z" />
<glyph unicode="i" horiz-adv-x="645" d="M29 0v209h55q22 0 30.5 13.5t8.5 49.5v441q0 46 -9.5 64t-35.5 18h-49v209h239q150 0 256 24v-756q0 -36 8.5 -49.5t30.5 -13.5h51v-209h-585zM111 1251q0 84 58 136.5t153 52.5t152.5 -52.5t57.5 -136.5t-57.5 -136t-152.5 -52t-153 52t-58 136z" />
<glyph unicode="j" horiz-adv-x="622" d="M-35 -125q24 -12 66 -12q45 0 66.5 21.5t21.5 74.5l2 754q0 46 -9.5 64t-35.5 18h-49v209h239q152 0 254 24v-1046q0 -193 -80.5 -272t-271.5 -79q-117 0 -203 31v213zM106 1251q0 84 58.5 136.5t154.5 52.5q94 0 152.5 -53t58.5 -136t-58.5 -135.5t-152.5 -52.5 q-96 0 -154.5 52t-58.5 136z" />
<glyph unicode="k" horiz-adv-x="1273" d="M10 1151v209h248q152 0 254 24v-860l233 215q17 15 10 35.5t-30 20.5h-82v209h578v-209h-76q-38 0 -84 -39l-133 -111l231 -391q27 -45 66 -45h37v-209h-586v209h39q22 0 22 20q0 12 -8 31l-92 160l-125 -113v-35q-1 -38 8.5 -50.5t32.5 -12.5h43v-209h-578v209h54 q22 0 31.5 12t9.5 51v805q0 43 -9 58.5t-32 15.5h-62z" />
<glyph unicode="l" horiz-adv-x="641" d="M20 1151v209h248q150 0 256 24v-1112q0 -39 9 -51t30 -12h45v-209h-579v209h55q21 0 30 12t9 51v805q0 43 -8 58.5t-31 15.5h-64z" />
<glyph unicode="m" horiz-adv-x="1900" d="M25 0v209h53q22 0 31.5 12t9.5 51v449q0 43 -9 58.5t-32 15.5h-53v209h235q150 0 252 24v-180q94 184 317 184q238 0 293 -205q79 205 336 205q166 0 251 -97t85 -304v-359q0 -39 9.5 -51t31.5 -12h53v-209h-571v209h37q22 0 31.5 12t9.5 51v336q0 88 -27 128t-86 40 q-68 0 -96.5 -49t-28.5 -158v-297q0 -39 9.5 -51t31.5 -12h45v-209h-563v209h37q21 0 31 12.5t10 50.5v344q0 160 -115 160q-67 0 -96 -49.5t-29 -157.5v-297q0 -39 9.5 -51t31.5 -12h43v-209h-577z" />
<glyph unicode="n" horiz-adv-x="1275" d="M25 0v209h53q22 0 31.5 12t9.5 51v449q0 43 -9 58.5t-32 15.5h-53v209h235q150 0 252 24v-172q90 176 330 176q329 0 329 -401v-359q0 -39 9.5 -51t31.5 -12h54v-209h-578v209h43q22 0 31.5 12t9.5 51v353q0 87 -26.5 123t-88.5 36q-70 0 -104.5 -52.5t-34.5 -168.5v-291 q0 -39 9.5 -51t31.5 -12h43v-209h-577z" />
<glyph unicode="o" horiz-adv-x="1175" d="M25 502q0 238 156.5 384t412.5 146q251 0 404 -145.5t153 -384.5q0 -238 -155.5 -384.5t-411.5 -146.5q-253 0 -406 145.5t-153 385.5zM426 483q0 -164 37 -228.5t125 -64.5t125 65t37 228v37q0 165 -37 230t-125 65q-87 0 -124.5 -65.5t-37.5 -229.5v-37z" />
<glyph unicode="p" horiz-adv-x="1275" d="M10 795v209h242q152 0 254 24v-201q81 205 321 205q194 0 307 -144.5t113 -385.5q0 -240 -119.5 -385.5t-318.5 -145.5q-217 0 -297 174v-225q0 -39 9.5 -51t31.5 -12h59v-209h-594v209h54q22 0 31.5 12t9.5 51v801q0 43 -9 58.5t-32 15.5h-62zM512 483q0 -266 160 -266 q159 0 159 266v37q0 266 -159 266q-78 0 -119 -62t-41 -204v-37z" />
<glyph unicode="q" horiz-adv-x="1271" d="M25 502q0 238 121 384t315 146q234 0 311 -188v160h164q141 0 225 24v-1108q0 -39 9.5 -51t31.5 -12h60v-209h-594v209h53q22 0 31.5 12t9.5 51v236q-44 -90 -120.5 -137.5t-178.5 -47.5q-199 0 -318.5 145.5t-119.5 385.5zM442 483q0 -141 41 -203.5t119 -62.5t119 62 t41 204v37q0 266 -160 266q-78 0 -119 -62.5t-41 -203.5v-37z" />
<glyph unicode="r" horiz-adv-x="1054" d="M18 795v209h248q148 0 254 24v-205q59 209 262 209q121 0 190.5 -83.5t69.5 -223.5q0 -121 -61.5 -190.5t-165.5 -69.5q-71 0 -121.5 44.5t-50.5 111.5q0 94 80 149q-21 12 -51 12q-76 0 -111.5 -66.5t-40.5 -205.5v-238q0 -39 9.5 -51t31.5 -12h62v-209h-596v209h53 q22 0 31.5 12t9.5 51v449q0 43 -8.5 58.5t-32.5 15.5h-62z" />
<glyph unicode="s" horiz-adv-x="964" d="M29 678q0 166 121.5 260t343.5 94q118 0 222 -24t173 -56v-250h-248v125q-55 19 -123 19q-60 0 -93.5 -23t-33.5 -63q0 -12 2.5 -21.5t9 -18t13 -14.5t19.5 -11.5t22.5 -9.5t28 -8.5t30 -7.5t35 -8t37.5 -8q47 -11 81 -21.5t78 -28t74.5 -41t58.5 -55.5t42 -77t14 -100 q0 -170 -121 -264.5t-348 -94.5q-206 0 -424 80v258h260v-137q55 -14 137 -14q133 0 133 90q0 17 -5 30.5t-20 24t-27 17.5t-42 15t-47.5 12t-60.5 13q-57 13 -97.5 26t-90 38.5t-80.5 57t-52.5 82t-21.5 114.5z" />
<glyph unicode="t" horiz-adv-x="731" d="M2 795v186q1 0 3.5 0.5t9 1t12 1.5t11 1.5t8.5 0.5l3 1q74 16 115.5 51t54.5 103l25 159h268v-296h168v-209h-174v-467q0 -70 26 -97.5t82 -27.5q33 0 80 14v-217q-106 -29 -213 -29q-198 0 -281 82.5t-83 276.5v465h-115z" />
<glyph unicode="u" horiz-adv-x="1269" d="M8 795v209h494v-629q0 -87 27 -121.5t89 -34.5q69 0 102.5 50.5t33.5 158.5v303q0 39 -9.5 51.5t-31.5 12.5h-76v209h516v-721q0 -43 9 -58.5t32 -15.5h61v-209h-247q-144 0 -254 -25v160q-98 -164 -322 -164q-167 0 -248.5 97t-81.5 301v362q0 39 -9.5 51.5t-31.5 12.5 h-53z" />
<glyph unicode="v" horiz-adv-x="1200" d="M10 795v209h613v-209h-54q-31 0 -42 -20.5t1 -55.5q2 -6 150 -377q95 237 143 371q13 38 1.5 60t-44.5 22h-61v209h477v-209h-47q-31 0 -48 -13t-32 -51l-313 -743h-310l-319 743q-14 38 -29 51t-39 13h-47z" />
<glyph unicode="w" horiz-adv-x="1726" d="M4 795v209h582v-209h-39q-28 0 -38.5 -21t1.5 -55q6 -18 53.5 -144.5t69.5 -195.5q100 285 117 340q11 34 0.5 55t-39.5 21h-35v209h543v-209h-37q-29 0 -39.5 -21t0.5 -55q8 -25 59 -151.5t76 -196.5q86 258 108 342q6 23 6 40q0 42 -42 42h-41v209h413v-209h-39 q-26 0 -38 -11.5t-27 -52.5l-250 -743h-328l-174 465l-172 -465h-315l-273 743q-15 39 -27.5 51.5t-35.5 12.5h-39z" />
<glyph unicode="x" horiz-adv-x="1185" d="M18 0v209h41q6 0 11 0.5t10 2t8.5 3t8.5 5t7.5 5.5t8 7.5t8 8.5t10 11t10.5 12l205 228l-215 247l-15 18t-14.5 16.5t-12 11t-14.5 8.5t-16 2h-32v209h624v-209h-51q-8 0 -16 -6t-10 -18t14 -30l90 -114l98 114q10 12 12 24.5t-5 21t-21 8.5h-43v209h446v-209h-49 q-11 0 -20 -2t-14.5 -3.5t-12.5 -8t-10 -10t-12.5 -15t-14.5 -17.5l-192 -213l225 -256q5 -6 13.5 -18t13.5 -17.5t12.5 -12.5t15.5 -10t17 -3h26v-209h-626v209h55q21 0 28.5 13.5t-10.5 39.5l-106 135l-109 -135q-15 -20 -11 -36.5t26 -16.5h45v-209h-437z" />
<glyph unicode="y" horiz-adv-x="1189" d="M-12 -135q0 93 49.5 148t142.5 55q100 0 150 -76q28 -45 28 -98q0 -38 -14 -80q84 33 119 172v16l-340 729q-20 40 -32.5 52t-37.5 12h-43v209h608v-209h-45q-32 0 -41 -25t5 -51l147 -328l123 322q13 41 0.5 61.5t-45.5 20.5h-49v209h469v-209h-49q-32 0 -45.5 -11.5 t-30.5 -52.5l-275 -678q-36 -97 -65.5 -161t-70 -122.5t-86.5 -91.5t-109 -52t-144 -19q-151 0 -235 70t-84 188z" />
<glyph unicode="z" horiz-adv-x="1028" d="M39 0v188l506 629h-131q-115 0 -138 -92l-14 -68h-199l15 347h909v-189l-506 -629h140q125 0 153 99l12 67h207l-14 -352h-940z" />
<glyph unicode="{" horiz-adv-x="770" d="M4 399v209h16q82 0 113 40t31 136v162q0 202 98.5 306t317.5 108h168v-209h-29q-101 -3 -131.5 -44.5t-30.5 -178.5v-131q0 -117 -50 -189t-181 -104q131 -33 181 -104.5t50 -188.5v-137q0 -94 13.5 -138t46 -60.5t102.5 -18.5h29v-209h-168q-219 3 -317.5 104t-98.5 301 v170q0 96 -31 136t-113 40h-16z" />
<glyph unicode="|" horiz-adv-x="487" d="M57 -352v1712h373v-1712h-373z" />
<glyph unicode="}" horiz-adv-x="770" d="M23 -143h28q54 2 83 9.5t48 32t25 64t6 111.5v137q0 117 50 188.5t181 104.5q-131 32 -181 104t-50 189v131q0 138 -30 179t-132 44h-28v209h170q217 -4 315 -108t98 -306v-162q0 -96 31 -136t113 -40h18v-209h-18q-82 0 -113 -40t-31 -136v-170q0 -200 -97.5 -301 t-315.5 -104h-170v209z" />
<glyph unicode="~" horiz-adv-x="825" d="M72 348l10 84q11 112 52 161.5t126 49.5q54 0 112 -23.5t102.5 -47t64.5 -23.5q19 0 28 9.5t13 35.5l8 39h166l-11 -82q-12 -113 -53 -163t-125 -50q-54 0 -112.5 23.5t-102.5 47t-63 23.5q-20 0 -30 -10t-13 -35l-6 -39h-166z" />
<glyph unicode="&#xa1;" horiz-adv-x="538" d="M59 324q0 42 5 88t16 97t20 90t26.5 95t26.5 82.5t28.5 83t23.5 68.5h125q0 -1 20 -59t24.5 -72t22.5 -70.5t24.5 -82t19 -77t18 -85.5t10 -77.5t4.5 -80.5l2 -324h-414zM70 1196q0 86 55.5 139.5t144.5 53.5t144 -53.5t55 -139.5t-55.5 -139t-143.5 -53q-89 0 -144.5 53 t-55.5 139z" />
<glyph unicode="&#xa2;" horiz-adv-x="1079" d="M25 518q0 219 122 355.5t340 164.5v158h211v-156q180 -20 275.5 -109t95.5 -235q0 -108 -57 -171.5t-160 -63.5q-88 0 -141.5 49.5t-53.5 122.5q0 66 38 110.5t108 57.5q-45 39 -146 39q-227 0 -227 -287v-47q0 -142 59 -212.5t164 -70.5q151 0 221 148l185 -103 q-38 -109 -129 -182t-232 -94v-178h-211v176q-222 25 -342 162t-120 366z" />
<glyph unicode="&#xa3;" horiz-adv-x="1273" d="M12 178q0 97 69.5 164.5t180.5 67.5q64 0 131 -13q-20 48 -67 113h-271v176h142q-68 115 -68 242q0 221 155.5 341t442.5 120q240 0 378 -107t138 -295q0 -110 -60.5 -178t-158.5 -68q-88 -2 -146.5 48t-58.5 126q0 68 43.5 118t116.5 57q-69 84 -207 84q-107 0 -165 -65 t-58 -181q0 -100 43 -242h295v-176h-252q8 -70 8 -111q0 -37 -6 -71q165 -58 258 -58q65 0 91 23t26 88v63h235v-151q0 -171 -67.5 -246.5t-214.5 -75.5q-119 0 -217.5 39t-202.5 107q-55 -69 -131 -107.5t-164 -38.5q-109 0 -173.5 57t-64.5 150zM133 170q0 -90 111 -90 q53 0 94.5 35.5t60.5 95.5q-83 49 -145 49q-56 0 -88.5 -25.5t-32.5 -64.5z" />
<glyph unicode="&#xa4;" horiz-adv-x="1384" d="M12 442v144h113q-2 29 -2 92v27h-111v143h123q41 252 195.5 396.5t386.5 144.5q207 0 342 -154l51 125h219v-447h-299q-30 104 -84 156.5t-141 52.5q-103 0 -161 -64.5t-75 -209.5h361v-143h-365v-80v-39h283v-144h-268q24 -111 81 -157.5t152 -46.5q90 0 154 61t90 172 l280 -104q-34 -180 -178 -288t-385 -108q-252 0 -413.5 119.5t-213.5 351.5h-135z" />
<glyph unicode="&#xa5;" horiz-adv-x="1353" d="M41 1151v209h651v-209h-53q-79 0 -41 -70l152 -254l139 254q36 70 -45 70h-51v209h520v-209h-49q-30 0 -52 -15.5t-47 -54.5l-215 -329h275v-144h-348v-127h348v-143h-348v-55q0 -44 10.5 -59t38.5 -15h96v-209h-698v209h96q28 0 38.5 15t10.5 59v55h-350v143h350v127 h-350v144h276l-213 329q-27 40 -45.5 55t-50.5 15h-45z" />
<glyph unicode="&#xa7;" horiz-adv-x="1273" d="M31 483q0 124 73 207t213 115q-102 79 -102 221q0 161 130.5 263t336.5 100q199 -1 302 -68.5t103 -194.5q0 -78 -48 -124t-126 -44q-65 1 -106 37.5t-41 89.5q0 47 45 89q-37 34 -123 34q-67 0 -106 -32.5t-39 -83.5q0 -42 39.5 -72.5t80 -44t131.5 -36.5q6 -2 9.5 -2.5 t8.5 -2t9 -2.5q65 -17 115 -33.5t111 -47t101 -66.5t67.5 -91t27.5 -121q0 -122 -75.5 -206t-215.5 -115q105 -78 105 -221q0 -160 -129 -262t-332 -99q-201 2 -308.5 68.5t-107.5 191.5q0 78 48 124t126 44q64 0 106 -37t42 -90q0 -40 -41 -88q42 -33 125 -33q71 0 108 31 t37 86q0 21 -8 38t-26.5 31t-36.5 24.5t-51 21.5t-56.5 18t-66.5 18l-33 9q-64 16 -115 32.5t-111.5 47t-100.5 66.5t-67.5 90.5t-27.5 119.5zM352 590q0 -18 5 -33.5t18.5 -29t25.5 -24t37 -22t41 -18.5t50 -18t52 -16t58 -17q99 -32 152 -54q61 0 96 31t35 80 q0 34 -17.5 59t-67 47.5t-79.5 32.5t-110 33q-9 3 -13 4q-122 37 -158 53q-59 -1 -92 -31t-33 -77z" />
<glyph unicode="&#xa8;" d="M133 1233q0 72 45.5 116t120.5 44t121.5 -44t46.5 -116q0 -73 -46.5 -117.5t-121.5 -44.5t-120.5 44.5t-45.5 117.5zM557 1233q0 72 45.5 116t120.5 44t120.5 -44t45.5 -116q0 -73 -45.5 -117.5t-120.5 -44.5t-120.5 44.5t-45.5 117.5z" />
<glyph unicode="&#xa9;" horiz-adv-x="1521" d="M39 678q0 321 198 516t525 195q325 0 523 -195.5t198 -515.5t-197 -513.5t-524 -193.5t-525 193.5t-198 513.5zM182 678q0 -263 160.5 -423.5t419.5 -160.5t419 160.5t160 423.5t-161 425.5t-418 162.5q-260 0 -420 -161.5t-160 -426.5zM375 678q0 172 99 281.5 t257 109.5q82 0 129 -25.5t76 -74.5l35 86h123v-295h-170q-17 77 -47.5 110t-85.5 33q-79 0 -118.5 -51.5t-39.5 -163.5v-22q0 -116 42 -161.5t122 -45.5q115 0 145 127l164 -76q-33 -108 -114 -165.5t-230 -57.5q-184 0 -285.5 101.5t-101.5 289.5z" />
<glyph unicode="&#xaa;" horiz-adv-x="864" d="M29 836q0 30 8 56t19.5 46t33 38t40.5 30.5t50 25t54 20t60 16t59.5 13t61.5 12t58 11.5v29q0 54 -23.5 81t-82.5 27q-33 0 -54 -6q6 -18 6 -39q0 -51 -33.5 -83t-86.5 -32q-63 0 -103.5 31.5t-40.5 87.5q0 101 92.5 145t294.5 44q181 0 255.5 -69.5t74.5 -234.5v-221 q0 -25 6 -35t23 -10h33v-153h-297q-40 37 -62 106q-27 -55 -85.5 -90t-131.5 -35q-102 0 -165.5 52.5t-63.5 136.5zM307 881q0 -72 76 -72q90 0 90 133v62q-33 -8 -48 -12t-39 -12.5t-34.5 -16t-23 -19.5t-17 -27.5t-4.5 -35.5z" />
<glyph unicode="&#xab;" horiz-adv-x="937" d="M45 426v152l393 268v-260l-133 -84l133 -84v-260zM473 426v152l416 305v-285l-139 -96l139 -96v-285z" />
<glyph unicode="&#xad;" horiz-adv-x="659" d="M41 365v274h582v-274h-582z" />
<glyph unicode="&#xae;" horiz-adv-x="1521" d="M39 678q0 321 198 516t525 195q325 0 523 -195.5t198 -515.5t-197 -513.5t-524 -193.5t-525 193.5t-198 513.5zM182 678q0 -263 160.5 -423.5t419.5 -160.5t419 160.5t160 423.5t-161 425.5t-418 162.5q-260 0 -420 -161.5t-160 -426.5zM395 307v119h43q14 0 19.5 8.5 t5.5 30.5v436q0 23 -5.5 31t-19.5 8h-43v119h430q141 0 212 -49.5t71 -159.5q0 -140 -166 -180q84 -17 118.5 -62t39.5 -133q2 -27 9.5 -38t27.5 -11h12v-119h-174q-120 0 -139 203q-3 56 -25 83.5t-80 27.5h-26v-156q0 -39 26 -39h41v-119h-377zM705 723h34q71 0 101 26 t30 85q0 55 -26.5 80.5t-89.5 25.5h-49v-217z" />
<glyph unicode="&#xaf;" d="M174 1122v209h672v-209h-672z" />
<glyph unicode="&#xb0;" horiz-adv-x="780" d="M27 1042q0 156 97.5 252.5t270.5 96.5q167 0 263 -97t96 -252q0 -158 -98 -255t-269 -97q-169 0 -264.5 96.5t-95.5 255.5zM295 1038q0 -104 20.5 -143t71.5 -39q53 0 74.5 39t21.5 143v6q0 101 -21 140t-73 39q-51 0 -72.5 -39t-21.5 -140v-6z" />
<glyph unicode="&#xb4;" d="M309 1075l176 285h353v-148l-379 -137h-150z" />
<glyph unicode="&#xb6;" horiz-adv-x="1347" d="M33 934q0 215 151 320.5t437 105.5h700v-209h-68q-29 0 -39 -14.5t-10 -57.5v-1079h-194v1151h-113v-1151h-195v535h-104q-273 0 -419 100t-146 299zM442 944q0 -106 49.5 -156.5t161.5 -50.5h49v412h-45q-115 0 -165 -49.5t-50 -155.5z" />
<glyph unicode="&#xb7;" horiz-adv-x="530" d="M43 502q0 96 61 155.5t162 59.5q100 0 161.5 -60t61.5 -155t-61.5 -155t-161.5 -60q-101 0 -162 59.5t-61 155.5z" />
<glyph unicode="&#xb8;" d="M276 -365l31 113q127 -51 215 -51q103 0 103 51q0 49 -105 49q-36 0 -74 -18l-8 6v217h185v-84q10 2 28 2q110 0 166.5 -43.5t56.5 -126.5q0 -88 -83 -138t-232 -50q-152 0 -283 73z" />
<glyph unicode="&#xba;" horiz-adv-x="876" d="M27 1016q0 167 115.5 270t297.5 103q179 0 294.5 -102.5t115.5 -270.5q0 -165 -117 -267t-299 -102q-180 0 -293.5 101.5t-113.5 267.5zM326 1006q0 -111 26 -152t84 -41q60 0 85.5 41t25.5 152v22q0 112 -26 153.5t-85 41.5q-58 0 -84 -42t-26 -153v-22z" />
<glyph unicode="&#xbb;" horiz-adv-x="937" d="M49 121v285l137 96l-137 96v285l416 -305v-152zM500 158v260l133 84l-133 84v260l393 -268v-152z" />
<glyph unicode="&#xbf;" horiz-adv-x="1073" d="M16 375q0 -188 136 -296t383 -108q235 0 367 108t132 292q0 106 -63 171.5t-162 65.5q-84 0 -141.5 -49.5t-57.5 -122.5q0 -63 39.5 -112t104.5 -62q-63 -53 -162 -53q-95 0 -145 46t-50 136q0 35 13.5 67t36 58t49 53.5t54 59.5t50.5 69t39 89.5t18 113.5v27h-125 q-41 -48 -101.5 -92t-114.5 -72t-110.5 -66t-97 -77t-66.5 -102.5t-26 -143.5zM365 1196q0 86 55.5 139.5t144.5 53.5t144 -53.5t55 -139.5t-55.5 -139t-143.5 -53q-89 0 -144.5 53t-55.5 139z" />
<glyph unicode="&#xc0;" horiz-adv-x="1529" d="M18 0v209h62q34 0 47 13.5t31 60.5l407 1079h418l391 -1079q15 -42 33 -58t51 -16h51v-209h-688v209h58q35 0 45 15.5t-2 56.5l-58 153h-381l-53 -153q-12 -43 -2 -57.5t47 -14.5h55v-209h-512zM358 1569v147h353l176 -284h-150zM541 627h272l-135 397z" />
<glyph unicode="&#xc1;" horiz-adv-x="1529" d="M18 0v209h62q34 0 47 13.5t31 60.5l407 1079h418l391 -1079q15 -42 33 -58t51 -16h51v-209h-688v209h58q35 0 45 15.5t-2 56.5l-58 153h-381l-53 -153q-12 -43 -2 -57.5t47 -14.5h55v-209h-512zM541 627h272l-135 397zM653 1432l176 284h353v-147l-379 -137h-150z" />
<glyph unicode="&#xc2;" horiz-adv-x="1529" d="M18 0v209h62q34 0 47 13.5t31 60.5l407 1079h418l391 -1079q15 -42 33 -58t51 -16h51v-209h-688v209h58q35 0 45 15.5t-2 56.5l-58 153h-381l-53 -153q-12 -43 -2 -57.5t47 -14.5h55v-209h-512zM459 1427l166 283h284l164 -283h-184l-125 134l-123 -134h-182zM541 627 h272l-135 397z" />
<glyph unicode="&#xc3;" horiz-adv-x="1529" d="M18 0v209h62q34 0 47 13.5t31 60.5l407 1079h418l391 -1079q15 -42 33 -58t51 -16h51v-209h-688v209h58q35 0 45 15.5t-2 56.5l-58 153h-381l-53 -153q-12 -43 -2 -57.5t47 -14.5h55v-209h-512zM424 1436l10 82q11 113 51.5 163t126.5 50q54 0 112 -23.5t102.5 -47.5 t64.5 -24q19 0 28 9t13 36l8 39h166l-10 -82q-12 -114 -53 -164.5t-125 -50.5q-54 0 -112.5 24t-103 48.5t-63.5 24.5q-20 0 -30 -10t-13 -35l-6 -39h-166zM541 627h272l-135 397z" />
<glyph unicode="&#xc4;" horiz-adv-x="1529" d="M18 0v209h62q34 0 47 13.5t31 60.5l407 1079h418l391 -1079q15 -42 33 -58t51 -16h51v-209h-688v209h58q35 0 45 15.5t-2 56.5l-58 153h-381l-53 -153q-12 -43 -2 -57.5t47 -14.5h55v-209h-512zM387 1585q0 72 45.5 116t120.5 44t121.5 -44t46.5 -116q0 -73 -46.5 -117.5 t-121.5 -44.5t-120.5 44.5t-45.5 117.5zM541 627h272l-135 397zM811 1585q0 72 45.5 116t120.5 44t120.5 -44t45.5 -116q0 -73 -45.5 -117.5t-120.5 -44.5t-120.5 44.5t-45.5 117.5z" />
<glyph unicode="&#xc5;" horiz-adv-x="1529" d="M18 0v209h62q34 0 47 13.5t31 60.5l397 1050q-53 53 -53 140q0 99 72.5 159t193.5 60q122 0 195 -60t73 -159q0 -79 -47 -132l385 -1058q15 -42 33 -58t51 -16h51v-209h-688v209h58q35 0 45 15.5t-2 56.5l-58 153h-381l-53 -153q-12 -43 -2 -57.5t47 -14.5h55v-209h-512z M541 627h272l-135 397zM676 1473q0 -38 27 -65.5t65 -27.5q40 0 67 27t27 66q0 40 -27 66t-67 26q-39 0 -65.5 -26.5t-26.5 -65.5z" />
<glyph unicode="&#xc6;" horiz-adv-x="1961" d="M23 0v209h53q36 0 58.5 15.5t45.5 58.5l404 794q16 37 3.5 55.5t-42.5 18.5h-109v209h1454v-387h-180l-37 94q-31 54 -61.5 69t-110.5 15h-223v-360h84q41 0 56.5 18t15.5 68v49h184v-488h-184v51q0 51 -16.5 73t-55.5 22h-84v-375h242q83 0 111 13t59 71l36 94h183v-387 h-1155v209h71q29 0 39 14.5t10 57.5v157h-331l-78 -157q-19 -43 -11.5 -57.5t44.5 -14.5h47v-209h-522zM631 631h243v485z" />
<glyph unicode="&#xc7;" horiz-adv-x="1374" d="M35 676q0 324 176.5 518.5t468.5 194.5q274 0 364 -195l66 166h219v-539h-334q-19 154 -76.5 224.5t-166.5 70.5q-140 0 -203.5 -95.5t-63.5 -303.5v-68q0 -223 66 -316t205 -93q121 0 189 67t83 209l313 -55q-11 -103 -47.5 -186.5t-101 -149.5t-165 -105.5 t-230.5 -46.5v-55q10 2 28 2q110 0 167 -43.5t57 -126.5q0 -88 -83.5 -138t-232.5 -50q-151 0 -282 73l30 113q127 -51 215 -51q103 0 103 51q0 49 -105 49q-36 0 -73 -18l-9 6v192q-277 32 -427 212.5t-150 486.5z" />
<glyph unicode="&#xc8;" horiz-adv-x="1277" d="M25 0v209h71q29 0 39 14.5t10 57.5v798q0 43 -10 57.5t-39 14.5h-71v209h1183v-387h-198l-37 94q-26 54 -58 69t-114 15h-228v-360h113q41 0 56.5 18t15.5 68v49h184v-488h-184v51q0 51 -16.5 73t-55.5 22h-113v-375h246q84 0 113.5 13.5t56.5 70.5l37 94h199v-387h-1200 zM315 1569v147h353l176 -284h-150z" />
<glyph unicode="&#xc9;" horiz-adv-x="1277" d="M25 0v209h71q29 0 39 14.5t10 57.5v798q0 43 -10 57.5t-39 14.5h-71v209h1183v-387h-198l-37 94q-26 54 -58 69t-114 15h-228v-360h113q41 0 56.5 18t15.5 68v49h184v-488h-184v51q0 51 -16.5 73t-55.5 22h-113v-375h246q84 0 113.5 13.5t56.5 70.5l37 94h199v-387h-1200 zM453 1432l176 284h352v-147l-379 -137h-149z" />
<glyph unicode="&#xca;" horiz-adv-x="1277" d="M25 0v209h71q29 0 39 14.5t10 57.5v798q0 43 -10 57.5t-39 14.5h-71v209h1183v-387h-198l-37 94q-26 54 -58 69t-114 15h-228v-360h113q41 0 56.5 18t15.5 68v49h184v-488h-184v51q0 51 -16.5 73t-55.5 22h-113v-375h246q84 0 113.5 13.5t56.5 70.5l37 94h199v-387h-1200 zM346 1432l166 282h285l164 -282h-185l-125 133l-123 -133h-182z" />
<glyph unicode="&#xcb;" horiz-adv-x="1277" d="M25 0v209h71q29 0 39 14.5t10 57.5v798q0 43 -10 57.5t-39 14.5h-71v209h1183v-387h-198l-37 94q-26 54 -58 69t-114 15h-228v-360h113q41 0 56.5 18t15.5 68v49h184v-488h-184v51q0 51 -16.5 73t-55.5 22h-113v-375h246q84 0 113.5 13.5t56.5 70.5l37 94h199v-387h-1200 zM264 1589q0 72 45.5 116t120.5 44t121.5 -44t46.5 -116q0 -73 -46.5 -117.5t-121.5 -44.5t-120.5 44.5t-45.5 117.5zM688 1589q0 72 45.5 116t120.5 44t120.5 -44t45.5 -116q0 -73 -45.5 -117.5t-120.5 -44.5t-120.5 44.5t-45.5 117.5z" />
<glyph unicode="&#xcc;" horiz-adv-x="741" d="M25 1569v147h352l176 -284h-150zM35 0v209h71q28 0 38 15t10 59v796q0 42 -10 57t-38 15h-71v209h672v-209h-72q-28 0 -38.5 -15t-10.5 -57v-796q0 -44 10.5 -59t38.5 -15h72v-209h-672z" />
<glyph unicode="&#xcd;" horiz-adv-x="741" d="M35 0v209h71q28 0 38 15t10 59v796q0 42 -10 57t-38 15h-71v209h672v-209h-72q-28 0 -38.5 -15t-10.5 -57v-796q0 -44 10.5 -59t38.5 -15h72v-209h-672zM197 1432l176 284h352v-147l-379 -137h-149z" />
<glyph unicode="&#xce;" horiz-adv-x="741" d="M35 0v209h71q28 0 38 15t10 59v796q0 42 -10 57t-38 15h-71v209h672v-209h-72q-28 0 -38.5 -15t-10.5 -57v-796q0 -44 10.5 -59t38.5 -15h72v-209h-672zM70 1432l166 282h284l164 -282h-184l-125 133l-123 -133h-182z" />
<glyph unicode="&#xcf;" horiz-adv-x="741" d="M-2 1589q0 72 45.5 116t120.5 44t121.5 -44t46.5 -116q0 -73 -46.5 -117.5t-121.5 -44.5t-120.5 44.5t-45.5 117.5zM35 0v209h71q28 0 38 15t10 59v796q0 42 -10 57t-38 15h-71v209h672v-209h-72q-28 0 -38.5 -15t-10.5 -57v-796q0 -44 10.5 -59t38.5 -15h72v-209h-672z M422 1589q0 72 45.5 116t120.5 44t120.5 -44t45.5 -116q0 -73 -45.5 -117.5t-120.5 -44.5t-120.5 44.5t-45.5 117.5z" />
<glyph unicode="&#xd0;" horiz-adv-x="1480" d="M25 0v209h71q29 0 39 15t10 59v295h-120v225h120v276q0 43 -10 57.5t-39 14.5h-71v209h708q352 0 530.5 -176t178.5 -508q0 -320 -186.5 -498t-538.5 -178h-692zM580 209h108q167 0 234 99t67 323v92q0 227 -66.5 327.5t-230.5 100.5h-112v-348h217v-225h-217v-369z" />
<glyph unicode="&#xd1;" horiz-adv-x="1505" d="M29 0v209h88q28 0 37.5 14.5t9.5 57.5v798q0 43 -9.5 57.5t-37.5 14.5h-88v209h546l521 -723v442q0 42 -10.5 57t-38.5 15h-86v209h522v-209h-88q-28 0 -38.5 -15t-10.5 -57v-1079h-289l-641 885v-604q0 -43 9.5 -57.5t37.5 -14.5h88v-209h-522zM418 1432l10 81 q11 113 51.5 163t126.5 50q54 0 112 -23.5t102.5 -47t64.5 -23.5q19 0 28 9t13 36l8 39h166l-10 -82q-12 -114 -53.5 -164.5t-125.5 -50.5q-42 0 -88.5 15t-78.5 33.5t-63.5 33.5t-47.5 15q-19 0 -29.5 -10.5t-13.5 -35.5l-6 -38h-166z" />
<glyph unicode="&#xd2;" horiz-adv-x="1501" d="M35 678q0 323 199 517t530 194q330 0 518 -191t188 -520q0 -323 -195 -515t-525 -192q-335 0 -525 190.5t-190 516.5zM383 1569v147h352l176 -284h-149zM485 633q0 -219 66 -315.5t205 -96.5t204.5 97t65.5 315v90q0 220 -65.5 319t-202.5 99q-140 0 -206.5 -99 t-66.5 -319v-90z" />
<glyph unicode="&#xd3;" horiz-adv-x="1501" d="M35 678q0 323 199 517t530 194q330 0 518 -191t188 -520q0 -323 -195 -515t-525 -192q-335 0 -525 190.5t-190 516.5zM485 633q0 -219 66 -315.5t205 -96.5t204.5 97t65.5 315v90q0 220 -65.5 319t-202.5 99q-140 0 -206.5 -99t-66.5 -319v-90zM598 1432l176 284h352 v-147l-378 -137h-150z" />
<glyph unicode="&#xd4;" horiz-adv-x="1501" d="M35 678q0 323 199 517t530 194q330 0 518 -191t188 -520q0 -323 -195 -515t-525 -192q-335 0 -525 190.5t-190 516.5zM449 1432l165 282h285l164 -282h-184l-125 133l-123 -133h-182zM485 633q0 -219 66 -315.5t205 -96.5t204.5 97t65.5 315v90q0 220 -65.5 319 t-202.5 99q-140 0 -206.5 -99t-66.5 -319v-90z" />
<glyph unicode="&#xd5;" horiz-adv-x="1501" d="M35 678q0 323 199 517t530 194q330 0 518 -191t188 -520q0 -323 -195 -515t-525 -192q-335 0 -525 190.5t-190 516.5zM410 1436l10 82q11 113 51.5 163t126.5 50q54 0 112 -23.5t102.5 -47.5t64.5 -24q19 0 28 9t13 36l8 39h166l-11 -82q-12 -114 -53 -164.5t-125 -50.5 q-42 0 -88.5 15t-78.5 33.5t-63.5 33.5t-47.5 15q-20 0 -30 -10t-13 -35l-7 -39h-165zM485 633q0 -219 66 -315.5t205 -96.5t204.5 97t65.5 315v90q0 220 -65.5 319t-202.5 99q-140 0 -206.5 -99t-66.5 -319v-90z" />
<glyph unicode="&#xd6;" horiz-adv-x="1501" d="M35 678q0 323 199 517t530 194q330 0 518 -191t188 -520q0 -323 -195 -515t-525 -192q-335 0 -525 190.5t-190 516.5zM377 1589q0 72 45.5 116t120.5 44t121.5 -44t46.5 -116q0 -73 -46.5 -117.5t-121.5 -44.5t-120.5 44.5t-45.5 117.5zM485 633q0 -219 66 -315.5 t205 -96.5t204.5 97t65.5 315v90q0 220 -65.5 319t-202.5 99q-140 0 -206.5 -99t-66.5 -319v-90zM801 1589q0 72 45.5 116t120.5 44t120.5 -44t45.5 -116q0 -73 -45.5 -117.5t-120.5 -44.5t-120.5 44.5t-45.5 117.5z" />
<glyph unicode="&#xd7;" horiz-adv-x="1011" d="M49 242l275 260l-275 262l197 194l260 -274l260 274l197 -196l-275 -260l275 -262l-197 -195l-260 274l-260 -274z" />
<glyph unicode="&#xd8;" horiz-adv-x="1501" d="M27 0l172 190q-164 187 -164 488q0 323 197.5 517t531.5 194q241 0 414 -109l71 80h228l-170 -191q163 -186 163 -491q0 -324 -194 -515.5t-526 -191.5q-253 0 -424 109l-72 -80h-227zM485 641q0 -57 7 -125l469 522q-63 109 -203 109q-139 0 -206 -105t-67 -327v-74z M547 326q66 -111 209 -111q137 0 203.5 103t66.5 323v74q0 80 -8 135z" />
<glyph unicode="&#xd9;" horiz-adv-x="1445" d="M25 1151v209h661v-209h-72q-28 0 -37.5 -14.5t-9.5 -57.5v-608q0 -145 56 -199.5t194 -54.5q119 0 174.5 63.5t55.5 198.5v600q0 43 -10.5 57.5t-39.5 14.5h-88v209h521v-209h-80q-28 0 -39 -15t-11 -57v-624q0 -248 -137 -366t-426 -118q-167 0 -278 24t-185 82 t-106.5 152t-32.5 236v614q0 42 -10.5 57t-38.5 15h-61zM371 1569v147h352l176 -284h-149z" />
<glyph unicode="&#xda;" horiz-adv-x="1445" d="M25 1151v209h661v-209h-72q-28 0 -37.5 -14.5t-9.5 -57.5v-608q0 -145 56 -199.5t194 -54.5q119 0 174.5 63.5t55.5 198.5v600q0 43 -10.5 57.5t-39.5 14.5h-88v209h521v-209h-80q-28 0 -39 -15t-11 -57v-624q0 -248 -137 -366t-426 -118q-167 0 -278 24t-185 82 t-106.5 152t-32.5 236v614q0 42 -10.5 57t-38.5 15h-61zM590 1432l176 284h352v-147l-379 -137h-149z" />
<glyph unicode="&#xdb;" horiz-adv-x="1445" d="M25 1151v209h661v-209h-72q-28 0 -37.5 -14.5t-9.5 -57.5v-608q0 -145 56 -199.5t194 -54.5q119 0 174.5 63.5t55.5 198.5v600q0 43 -10.5 57.5t-39.5 14.5h-88v209h521v-209h-80q-28 0 -39 -15t-11 -57v-624q0 -248 -137 -366t-426 -118q-167 0 -278 24t-185 82 t-106.5 152t-32.5 236v614q0 42 -10.5 57t-38.5 15h-61zM473 1432l166 282h285l163 -282h-184l-125 133l-123 -133h-182z" />
<glyph unicode="&#xdc;" horiz-adv-x="1445" d="M25 1151v209h661v-209h-72q-28 0 -37.5 -14.5t-9.5 -57.5v-608q0 -145 56 -199.5t194 -54.5q119 0 174.5 63.5t55.5 198.5v600q0 43 -10.5 57.5t-39.5 14.5h-88v209h521v-209h-80q-28 0 -39 -15t-11 -57v-624q0 -248 -137 -366t-426 -118q-167 0 -278 24t-185 82 t-106.5 152t-32.5 236v614q0 42 -10.5 57t-38.5 15h-61zM401 1585q0 72 45.5 116t120.5 44t121.5 -44t46.5 -116q0 -73 -46.5 -117.5t-121.5 -44.5t-120.5 44.5t-45.5 117.5zM825 1585q0 72 45.5 116t120.5 44t120.5 -44t45.5 -116q0 -73 -45.5 -117.5t-120.5 -44.5 t-120.5 44.5t-45.5 117.5z" />
<glyph unicode="&#xdd;" horiz-adv-x="1417" d="M25 1151v209h696v-209h-55q-34 0 -41 -25.5t14 -60.5l160 -256l162 272q16 34 4 52t-45 18h-76v209h559v-209h-62q-34 0 -54 -15t-44 -55l-325 -510v-288q0 -44 10.5 -59t38.5 -15h88v-209h-690v209h88q29 0 39 15t10 59v276l-334 522q-27 40 -46.5 55t-51.5 15h-45z M528 1432l177 284h352v-147l-379 -137h-150z" />
<glyph unicode="&#xde;" horiz-adv-x="1296" d="M25 0v209h71q29 0 39 15t10 59v796q0 43 -10 57.5t-39 14.5h-71v209h673v-209h-71q-28 0 -38.5 -15t-10.5 -57v-18h174q268 0 390 -87.5t122 -281.5q0 -191 -121 -278.5t-393 -87.5h-172v-43q0 -44 10.5 -59t38.5 -15h88v-209h-690zM578 504h61q117 0 169 45.5t52 140.5 q0 99 -50 141.5t-175 42.5h-57v-370z" />
<glyph unicode="&#xdf;" horiz-adv-x="1247" d="M16 795v209h123q12 211 134.5 304t379.5 93q461 0 461 -332q0 -173 -170 -235q135 -42 207 -142.5t72 -251.5q0 -227 -111.5 -343.5t-314.5 -116.5q-135 0 -203 22v225q28 -14 72 -14q77 0 108 50t31 186q0 148 -41 207t-139 59h-19v190h19q78 0 112.5 33.5t34.5 103.5 q0 142 -117 142q-64 0 -93.5 -41.5t-29.5 -132.5v-1010h-499v209h65q22 0 31.5 14t9.5 49v523h-123z" />
<glyph unicode="&#xe0;" horiz-adv-x="1171" d="M29 242q0 184 206 275q110 48 354 90q12 2 35 6q29 5 44 8v55q0 81 -36 118t-120 37q-40 0 -80 -8q14 -44 14 -78q0 -72 -53 -119.5t-135 -47.5q-96 0 -147.5 46.5t-51.5 133.5q0 135 132 204.5t382 69.5q271 0 382.5 -79.5t111.5 -274.5v-406q0 -35 8.5 -49t30.5 -14h53 v-209h-397q-34 33 -53 66t-37 88q-37 -79 -131 -131t-203 -52q-143 0 -226 75.5t-83 195.5zM203 1212v148h352l176 -285h-149zM401 299q0 -45 29 -73.5t74 -28.5q80 0 122 54t42 146v74q-49 -8 -83 -15.5t-71.5 -21t-60 -31t-37.5 -44t-15 -60.5z" />
<glyph unicode="&#xe1;" horiz-adv-x="1171" d="M29 242q0 184 206 275q110 48 354 90q12 2 35 6q29 5 44 8v55q0 81 -36 118t-120 37q-40 0 -80 -8q14 -44 14 -78q0 -72 -53 -119.5t-135 -47.5q-96 0 -147.5 46.5t-51.5 133.5q0 135 132 204.5t382 69.5q271 0 382.5 -79.5t111.5 -274.5v-406q0 -35 8.5 -49t30.5 -14h53 v-209h-397q-34 33 -53 66t-37 88q-37 -79 -131 -131t-203 -52q-143 0 -226 75.5t-83 195.5zM401 299q0 -45 29 -73.5t74 -28.5q80 0 122 54t42 146v74q-49 -8 -83 -15.5t-71.5 -21t-60 -31t-37.5 -44t-15 -60.5zM403 1075l177 285h352v-148l-379 -137h-150z" />
<glyph unicode="&#xe2;" horiz-adv-x="1171" d="M29 242q0 184 206 275q110 48 354 90q12 2 35 6q29 5 44 8v55q0 81 -36 118t-120 37q-40 0 -80 -8q14 -44 14 -78q0 -72 -53 -119.5t-135 -47.5q-96 0 -147.5 46.5t-51.5 133.5q0 135 132 204.5t382 69.5q271 0 382.5 -79.5t111.5 -274.5v-406q0 -35 8.5 -49t30.5 -14h53 v-209h-397q-34 33 -53 66t-37 88q-37 -79 -131 -131t-203 -52q-143 0 -226 75.5t-83 195.5zM256 1075l166 283h285l163 -283h-184l-125 133l-123 -133h-182zM401 299q0 -45 29 -73.5t74 -28.5q80 0 122 54t42 146v74q-49 -8 -83 -15.5t-71.5 -21t-60 -31t-37.5 -44 t-15 -60.5z" />
<glyph unicode="&#xe3;" horiz-adv-x="1171" d="M29 242q0 184 206 275q110 48 354 90q12 2 35 6q29 5 44 8v55q0 81 -36 118t-120 37q-40 0 -80 -8q14 -44 14 -78q0 -72 -53 -119.5t-135 -47.5q-96 0 -147.5 46.5t-51.5 133.5q0 135 132 204.5t382 69.5q271 0 382.5 -79.5t111.5 -274.5v-406q0 -35 8.5 -49t30.5 -14h53 v-209h-397q-34 33 -53 66t-37 88q-37 -79 -131 -131t-203 -52q-143 0 -226 75.5t-83 195.5zM227 1083l11 82q11 113 51.5 163t126.5 50q54 0 112 -23.5t102 -47t64 -23.5q19 0 28 9t13 36l8 39h166l-10 -82q-12 -114 -53 -164.5t-125 -50.5q-54 0 -112.5 24t-103 48 t-63.5 24q-20 0 -30 -10t-13 -35l-6 -39h-166zM401 299q0 -45 29 -73.5t74 -28.5q80 0 122 54t42 146v74q-49 -8 -83 -15.5t-71.5 -21t-60 -31t-37.5 -44t-15 -60.5z" />
<glyph unicode="&#xe4;" horiz-adv-x="1171" d="M29 242q0 184 206 275q110 48 354 90q12 2 35 6q29 5 44 8v55q0 81 -36 118t-120 37q-40 0 -80 -8q14 -44 14 -78q0 -72 -53 -119.5t-135 -47.5q-96 0 -147.5 46.5t-51.5 133.5q0 135 132 204.5t382 69.5q271 0 382.5 -79.5t111.5 -274.5v-406q0 -35 8.5 -49t30.5 -14h53 v-209h-397q-34 33 -53 66t-37 88q-37 -79 -131 -131t-203 -52q-143 0 -226 75.5t-83 195.5zM190 1233q0 72 45.5 116t120.5 44t121.5 -44t46.5 -116q0 -73 -46.5 -117.5t-121.5 -44.5t-120.5 44.5t-45.5 117.5zM401 299q0 -45 29 -73.5t74 -28.5q80 0 122 54t42 146v74 q-49 -8 -83 -15.5t-71.5 -21t-60 -31t-37.5 -44t-15 -60.5zM614 1233q0 72 45.5 116t120.5 44t120.5 -44t45.5 -116q0 -73 -45.5 -117.5t-120.5 -44.5t-120.5 44.5t-45.5 117.5z" />
<glyph unicode="&#xe5;" horiz-adv-x="1171" d="M29 242q0 184 206 275q110 48 354 90q12 2 35 6q29 5 44 8v55q0 81 -36 118t-120 37q-40 0 -80 -8q14 -44 14 -78q0 -72 -53 -119.5t-135 -47.5q-96 0 -147.5 46.5t-51.5 133.5q0 135 132 204.5t382 69.5q271 0 382.5 -79.5t111.5 -274.5v-406q0 -35 8.5 -49t30.5 -14h53 v-209h-397q-34 33 -53 66t-37 88q-37 -79 -131 -131t-203 -52q-143 0 -226 75.5t-83 195.5zM309 1313q0 99 73.5 159t195.5 60q121 0 193.5 -60t72.5 -159q0 -97 -72.5 -157t-193.5 -60q-122 0 -195.5 60t-73.5 157zM401 299q0 -45 29 -73.5t74 -28.5q80 0 122 54t42 146v74 q-49 -8 -83 -15.5t-71.5 -21t-60 -31t-37.5 -44t-15 -60.5zM483 1313q0 -38 27.5 -65t67.5 -27q38 0 65 27t27 65q0 40 -27 67t-65 27q-40 0 -67.5 -27t-27.5 -67z" />
<glyph unicode="&#xe6;" horiz-adv-x="1726" d="M29 233q0 55 15 100t39.5 79.5t68 63.5t89.5 49.5t116 40t134 33t156 30.5v43q0 88 -32 118.5t-121 30.5q-43 0 -76 -8q10 -33 10 -65q0 -70 -53 -116t-133 -46q-94 0 -144.5 44t-50.5 130q0 90 72.5 152.5t188 91t263.5 28.5q210 0 303 -90q129 90 318 90 q257 0 383.5 -144t126.5 -419v-41h-651q4 -110 64 -164.5t167 -54.5q159 0 227 143l187 -133q-130 -248 -502 -248q-304 0 -444 181q-68 -87 -177 -134t-223 -47q-154 0 -237.5 74t-83.5 188zM401 303q0 -48 26.5 -77t70.5 -29q65 0 107.5 30t64.5 103q-15 74 -17 135 q-252 -25 -252 -162zM1044 600h281q-3 123 -33 175t-94 52q-74 0 -110.5 -53t-43.5 -174z" />
<glyph unicode="&#xe7;" horiz-adv-x="1079" d="M25 506q0 246 150.5 386t414.5 140q230 0 352.5 -90t122.5 -256q0 -108 -58 -175t-159 -67q-89 0 -142 49.5t-53 122.5q0 66 36.5 111.5t103.5 60.5q-45 39 -142 39q-221 0 -221 -286v-47q0 -279 213 -279q80 0 131.5 38t83.5 114l205 -117q-108 -264 -428 -277v-55 q10 2 29 2q110 0 166.5 -43.5t56.5 -126.5q0 -88 -83.5 -138t-232.5 -50q-151 0 -282 73l30 113q128 -51 216 -51q102 0 102 51q0 49 -105 49q-36 0 -73 -18l-8 6v199q-204 34 -315 169t-111 353z" />
<glyph unicode="&#xe8;" horiz-adv-x="1112" d="M25 504q0 239 149.5 383.5t400.5 144.5q257 0 384.5 -144.5t127.5 -418.5v-41h-653q4 -110 64.5 -164.5t167.5 -54.5q159 0 227 143l186 -133q-130 -248 -493 -248q-268 0 -414.5 145.5t-146.5 387.5zM233 1212v148h353l176 -285h-150zM428 600h281q-3 123 -33.5 174 t-97.5 51q-73 0 -108.5 -52.5t-41.5 -172.5z" />
<glyph unicode="&#xe9;" horiz-adv-x="1112" d="M25 504q0 239 149.5 383.5t400.5 144.5q257 0 384.5 -144.5t127.5 -418.5v-41h-653q4 -110 64.5 -164.5t167.5 -54.5q159 0 227 143l186 -133q-130 -248 -493 -248q-268 0 -414.5 145.5t-146.5 387.5zM399 1075l176 285h353v-148l-379 -137h-150zM428 600h281 q-3 123 -33.5 174t-97.5 51q-73 0 -108.5 -52.5t-41.5 -172.5z" />
<glyph unicode="&#xea;" horiz-adv-x="1112" d="M25 504q0 239 149.5 383.5t400.5 144.5q257 0 384.5 -144.5t127.5 -418.5v-41h-653q4 -110 64.5 -164.5t167.5 -54.5q159 0 227 143l186 -133q-130 -248 -493 -248q-268 0 -414.5 145.5t-146.5 387.5zM260 1075l166 283h285l163 -283h-184l-125 133l-123 -133h-182z M428 600h281q-3 123 -33.5 174t-97.5 51q-73 0 -108.5 -52.5t-41.5 -172.5z" />
<glyph unicode="&#xeb;" horiz-adv-x="1112" d="M25 504q0 239 149.5 383.5t400.5 144.5q257 0 384.5 -144.5t127.5 -418.5v-41h-653q4 -110 64.5 -164.5t167.5 -54.5q159 0 227 143l186 -133q-130 -248 -493 -248q-268 0 -414.5 145.5t-146.5 387.5zM186 1233q0 72 45.5 116t120.5 44t121.5 -44t46.5 -116 q0 -73 -46.5 -117.5t-121.5 -44.5t-120.5 44.5t-45.5 117.5zM428 600h281q-3 123 -33.5 174t-97.5 51q-73 0 -108.5 -52.5t-41.5 -172.5zM610 1233q0 72 45.5 116t120.5 44t120.5 -44t45.5 -116q0 -73 -45.5 -117.5t-120.5 -44.5t-120.5 44.5t-45.5 117.5z" />
<glyph unicode="&#xec;" horiz-adv-x="647" d="M10 1212v148h352l177 -285h-150zM29 0v209h55q22 0 30.5 13.5t8.5 49.5v441q0 46 -9.5 64t-35.5 18h-49v209h239q150 0 256 24v-756q0 -36 8.5 -49.5t30.5 -13.5h51v-209h-585z" />
<glyph unicode="&#xed;" horiz-adv-x="647" d="M29 0v209h55q22 0 30.5 13.5t8.5 49.5v441q0 46 -9.5 64t-35.5 18h-49v209h239q150 0 256 24v-756q0 -36 8.5 -49.5t30.5 -13.5h51v-209h-585zM74 1075l176 285h352v-148l-379 -137h-149z" />
<glyph unicode="&#xee;" horiz-adv-x="647" d="M14 1075l166 283h285l164 -283h-185l-125 133l-122 -133h-183zM29 0v209h55q22 0 30.5 13.5t8.5 49.5v441q0 46 -9.5 64t-35.5 18h-49v209h239q150 0 256 24v-756q0 -36 8.5 -49.5t30.5 -13.5h51v-209h-585z" />
<glyph unicode="&#xef;" horiz-adv-x="647" d="M-59 1233q0 72 45 116t120 44t121.5 -44t46.5 -116q0 -73 -46.5 -117.5t-121.5 -44.5t-120 44t-45 118zM27 0v209h55q22 0 30.5 13.5t8.5 49.5v441q0 46 -9.5 64t-35.5 18h-49v209h239q150 0 256 24v-756q0 -36 8.5 -49.5t30.5 -13.5h51v-209h-585zM365 1233q0 72 45 116 t120 44t120.5 -44t45.5 -116q0 -73 -45.5 -117.5t-120.5 -44.5t-120 44t-45 118z" />
<glyph unicode="&#xf0;" horiz-adv-x="1208" d="M25 444q0 218 122.5 342.5t337.5 124.5q183 0 271 -94q-38 157 -191 252l-286 -117l-52 148l144 57q-79 26 -158 43l221 242q183 -26 340 -119l213 88l51 -147l-116 -47q124 -113 193 -268.5t69 -336.5q0 -145 -35.5 -261t-107.5 -202t-187 -132t-266 -46 q-275 0 -419 126t-144 347zM438 440q0 -127 38 -182t124 -55t124 55.5t38 181.5v33q0 123 -39.5 179.5t-118.5 56.5q-166 0 -166 -236v-33z" />
<glyph unicode="&#xf1;" horiz-adv-x="1275" d="M25 0v209h53q22 0 31.5 12t9.5 51v449q0 43 -9 58.5t-32 15.5h-53v209h235q150 0 252 24v-172q90 176 330 176q329 0 329 -401v-359q0 -39 9.5 -51t31.5 -12h54v-209h-578v209h43q22 0 31.5 12t9.5 51v353q0 87 -26.5 123t-88.5 36q-70 0 -104.5 -52.5t-34.5 -168.5v-291 q0 -39 9.5 -51t31.5 -12h43v-209h-577zM293 1083l10 82q11 113 51.5 163t126.5 50q54 0 112.5 -23.5t102.5 -47t64 -23.5q19 0 28 9t13 36l8 39h166l-10 -82q-12 -114 -53.5 -164.5t-125.5 -50.5q-54 0 -112.5 24t-102.5 48t-63 24q-20 0 -30 -10t-13 -35l-6 -39h-166z" />
<glyph unicode="&#xf2;" horiz-adv-x="1175" d="M25 502q0 238 156.5 384t412.5 146q251 0 404 -145.5t153 -384.5q0 -238 -155.5 -384.5t-411.5 -146.5q-253 0 -406 145.5t-153 385.5zM205 1212v148h352l176 -285h-149zM426 483q0 -164 37 -228.5t125 -64.5t125 65t37 228v37q0 165 -37 230t-125 65q-87 0 -124.5 -65.5 t-37.5 -229.5v-37z" />
<glyph unicode="&#xf3;" horiz-adv-x="1175" d="M25 502q0 238 156.5 384t412.5 146q251 0 404 -145.5t153 -384.5q0 -238 -155.5 -384.5t-411.5 -146.5q-253 0 -406 145.5t-153 385.5zM426 483q0 -164 37 -228.5t125 -64.5t125 65t37 228v37q0 165 -37 230t-125 65q-87 0 -124.5 -65.5t-37.5 -229.5v-37zM436 1075 l176 285h353v-148l-379 -137h-150z" />
<glyph unicode="&#xf4;" horiz-adv-x="1175" d="M25 502q0 238 156.5 384t412.5 146q251 0 404 -145.5t153 -384.5q0 -238 -155.5 -384.5t-411.5 -146.5q-253 0 -406 145.5t-153 385.5zM283 1075l166 283h284l164 -283h-184l-125 133l-123 -133h-182zM426 483q0 -164 37 -228.5t125 -64.5t125 65t37 228v37 q0 165 -37 230t-125 65q-87 0 -124.5 -65.5t-37.5 -229.5v-37z" />
<glyph unicode="&#xf5;" horiz-adv-x="1175" d="M25 502q0 238 156.5 384t412.5 146q251 0 404 -145.5t153 -384.5q0 -238 -155.5 -384.5t-411.5 -146.5q-253 0 -406 145.5t-153 385.5zM248 1083l10 82q11 113 51.5 163t126.5 50q54 0 112.5 -23.5t102.5 -47t64 -23.5q19 0 28 9t13 36l8 39h166l-10 -82 q-12 -114 -53.5 -164.5t-125.5 -50.5q-54 0 -112.5 24t-102.5 48t-63 24q-20 0 -30 -10t-13 -35l-6 -39h-166zM426 483q0 -164 37 -228.5t125 -64.5t125 65t37 228v37q0 165 -37 230t-125 65q-87 0 -124.5 -65.5t-37.5 -229.5v-37z" />
<glyph unicode="&#xf6;" horiz-adv-x="1175" d="M25 502q0 238 156.5 384t412.5 146q251 0 404 -145.5t153 -384.5q0 -238 -155.5 -384.5t-411.5 -146.5q-253 0 -406 145.5t-153 385.5zM211 1233q0 72 45.5 116t120.5 44t121.5 -44t46.5 -116q0 -73 -46.5 -117.5t-121.5 -44.5t-120.5 44.5t-45.5 117.5zM426 483 q0 -164 37 -228.5t125 -64.5t125 65t37 228v37q0 165 -37 230t-125 65q-87 0 -124.5 -65.5t-37.5 -229.5v-37zM635 1233q0 72 45.5 116t120.5 44t120.5 -44t45.5 -116q0 -73 -45.5 -117.5t-120.5 -44.5t-120.5 44.5t-45.5 117.5z" />
<glyph unicode="&#xf7;" horiz-adv-x="1011" d="M68 389v225h876v-225h-876zM336 164q0 73 46.5 117.5t123.5 44.5t123.5 -44.5t46.5 -117.5q0 -74 -47 -119t-123 -45t-123 45t-47 119zM336 840q0 74 47 119t123 45t123 -45t47 -119t-47 -119t-123 -45t-123 45t-47 119z" />
<glyph unicode="&#xf8;" horiz-adv-x="1175" d="M25 502q0 238 156.5 384t412.5 146q157 0 278 -59l48 55h227l-135 -156q139 -145 139 -370q0 -238 -155.5 -384.5t-411.5 -146.5q-166 0 -295 66l-31 -37h-229l123 141q-127 142 -127 361zM408 496q0 -68 4 -97l299 369q-41 55 -123 55q-92 0 -136 -72.5t-44 -242.5v-12z M453 248q43 -68 135 -68t136 73t44 243v12q0 72 -8 119z" />
<glyph unicode="&#xf9;" horiz-adv-x="1269" d="M8 795v209h494v-629q0 -87 27 -121.5t89 -34.5q69 0 102.5 50.5t33.5 158.5v303q0 39 -9.5 51.5t-31.5 12.5h-76v209h516v-721q0 -43 9 -58.5t32 -15.5h61v-209h-247q-144 0 -254 -25v160q-98 -164 -322 -164q-167 0 -248.5 97t-81.5 301v362q0 39 -9.5 51.5t-31.5 12.5 h-53zM266 1212v148h352l177 -285h-150z" />
<glyph unicode="&#xfa;" horiz-adv-x="1269" d="M8 795v209h494v-629q0 -87 27 -121.5t89 -34.5q69 0 102.5 50.5t33.5 158.5v303q0 39 -9.5 51.5t-31.5 12.5h-76v209h516v-721q0 -43 9 -58.5t32 -15.5h61v-209h-247q-144 0 -254 -25v160q-98 -164 -322 -164q-167 0 -248.5 97t-81.5 301v362q0 39 -9.5 51.5t-31.5 12.5 h-53zM457 1075l176 285h352v-148l-379 -137h-149z" />
<glyph unicode="&#xfb;" horiz-adv-x="1269" d="M8 795v209h494v-629q0 -87 27 -121.5t89 -34.5q69 0 102.5 50.5t33.5 158.5v303q0 39 -9.5 51.5t-31.5 12.5h-76v209h516v-721q0 -43 9 -58.5t32 -15.5h61v-209h-247q-144 0 -254 -25v160q-98 -164 -322 -164q-167 0 -248.5 97t-81.5 301v362q0 39 -9.5 51.5t-31.5 12.5 h-53zM315 1075l166 283h285l164 -283h-185l-124 133l-123 -133h-183z" />
<glyph unicode="&#xfc;" horiz-adv-x="1269" d="M8 795v209h494v-629q0 -87 27 -121.5t89 -34.5q69 0 102.5 50.5t33.5 158.5v303q0 39 -9.5 51.5t-31.5 12.5h-76v209h516v-721q0 -43 9 -58.5t32 -15.5h61v-209h-247q-144 0 -254 -25v160q-98 -164 -322 -164q-167 0 -248.5 97t-81.5 301v362q0 39 -9.5 51.5t-31.5 12.5 h-53zM248 1233q0 72 45.5 116t120.5 44t121.5 -44t46.5 -116q0 -73 -46.5 -117.5t-121.5 -44.5t-120.5 44.5t-45.5 117.5zM672 1233q0 72 45.5 116t120.5 44t120.5 -44t45.5 -116q0 -73 -45.5 -117.5t-120.5 -44.5t-120.5 44.5t-45.5 117.5z" />
<glyph unicode="&#xfd;" horiz-adv-x="1189" d="M-12 -135q0 -118 84 -188t235 -70q81 0 144 19t109 52t86.5 91.5t70 122.5t65.5 161l275 678q17 41 30.5 52.5t45.5 11.5h49v209h-469v-209h49q33 0 45.5 -20.5t-0.5 -61.5l-123 -322l-147 328q-14 26 -5 51t41 25h45v209h-608v-209h43q25 0 37.5 -12t32.5 -52l340 -729 v-16q-35 -139 -119 -172q35 102 -14.5 178t-149.5 76q-93 0 -142.5 -55t-49.5 -148zM408 1075l176 285h352v-148l-379 -137h-149z" />
<glyph unicode="&#xfe;" horiz-adv-x="1275" d="M10 1167v193h248q152 0 254 24v-548q80 196 315 196q194 0 307 -144.5t113 -385.5q0 -240 -119.5 -385.5t-318.5 -145.5q-210 0 -297 164v-231q0 -39 9.5 -51.5t31.5 -12.5h59v-192h-594v192h54q22 0 31.5 12.5t9.5 51.5v1190q0 42 -9 57.5t-32 15.5h-62zM512 483 q0 -142 42 -213t118 -71q75 0 116 70.5t41 213.5v37q0 273 -157 273q-160 0 -160 -273v-37z" />
<glyph unicode="&#xff;" horiz-adv-x="1189" d="M-12 -135q0 -118 84 -188t235 -70q81 0 144 19t109 52t86.5 91.5t70 122.5t65.5 161l275 678q17 41 30.5 52.5t45.5 11.5h49v209h-469v-209h49q33 0 45.5 -20.5t-0.5 -61.5l-123 -322l-147 328q-14 26 -5 51t41 25h45v209h-608v-209h43q25 0 37.5 -12t32.5 -52l340 -729 v-16q-35 -139 -119 -172q35 102 -14.5 178t-149.5 76q-93 0 -142.5 -55t-49.5 -148zM233 1233q0 72 45.5 116t120.5 44t121.5 -44t46.5 -116q0 -73 -46.5 -117.5t-121.5 -44.5t-120.5 44.5t-45.5 117.5zM657 1233q0 72 45.5 116t120.5 44t120.5 -44t45.5 -116 q0 -73 -45.5 -117.5t-120.5 -44.5t-120.5 44.5t-45.5 117.5z" />
<glyph unicode="&#x152;" horiz-adv-x="2002" d="M33 684q0 317 189 496.5t538 179.5h1173v-387h-182l-37 94q-31 54 -61.5 69t-110.5 15h-227v-360h86q42 0 58 18t16 68v49h184v-488h-184v51q0 52 -16.5 73.5t-57.5 21.5h-86v-375h246q83 0 111 13t59 71l36 94h183v-387h-1211q-347 0 -526.5 177t-179.5 507zM485 637 q0 -223 70.5 -325.5t235.5 -102.5h96v942h-92q-165 0 -237.5 -102t-72.5 -320v-92z" />
<glyph unicode="&#x153;" horiz-adv-x="1839" d="M25 502q0 241 150 385.5t405 144.5q234 0 372 -135q132 135 369 135q247 0 370.5 -144.5t123.5 -418.5v-41h-654q7 -108 67.5 -163.5t164.5 -55.5q159 0 227 143l186 -133q-130 -248 -487 -248q-242 0 -373 131q-137 -131 -377 -131q-252 0 -398 144t-146 387zM426 496 q0 -166 37.5 -234.5t124.5 -68.5t124.5 69t37.5 234v12q0 166 -37.5 234.5t-124.5 68.5t-124.5 -69t-37.5 -234v-12zM1155 600h281q-4 121 -33.5 174t-91.5 53q-74 0 -111.5 -53.5t-44.5 -173.5z" />
<glyph unicode="&#x178;" horiz-adv-x="1417" d="M25 1151v209h696v-209h-55q-34 0 -41 -25.5t14 -60.5l160 -256l162 272q16 34 4 52t-45 18h-76v209h559v-209h-62q-34 0 -54 -15t-44 -55l-325 -510v-288q0 -44 10.5 -59t38.5 -15h88v-209h-690v209h88q29 0 39 15t10 59v276l-334 522q-27 40 -46.5 55t-51.5 15h-45z M360 1585q0 72 45.5 116t120.5 44t121.5 -44t46.5 -116q0 -73 -46.5 -117.5t-121.5 -44.5t-120.5 44.5t-45.5 117.5zM784 1585q0 72 45.5 116t120.5 44t120.5 -44t45.5 -116q0 -73 -45.5 -117.5t-120.5 -44.5t-120.5 44.5t-45.5 117.5z" />
<glyph unicode="&#x2c6;" d="M205 1075l166 283h284l164 -283h-184l-125 133l-123 -133h-182z" />
<glyph unicode="&#x2dc;" d="M170 1083l10 82q11 113 51.5 163t126.5 50q54 0 112 -23.5t102.5 -47t64.5 -23.5q19 0 28 9t13 36l8 39h166l-10 -82q-12 -114 -53 -164.5t-125 -50.5q-54 0 -112.5 24t-103 48t-63.5 24q-20 0 -30 -10t-13 -35l-6 -39h-166z" />
<glyph unicode="&#x2000;" horiz-adv-x="874" />
<glyph unicode="&#x2001;" horiz-adv-x="1749" />
<glyph unicode="&#x2002;" horiz-adv-x="874" />
<glyph unicode="&#x2003;" horiz-adv-x="1749" />
<glyph unicode="&#x2004;" horiz-adv-x="583" />
<glyph unicode="&#x2005;" horiz-adv-x="437" />
<glyph unicode="&#x2006;" horiz-adv-x="291" />
<glyph unicode="&#x2007;" horiz-adv-x="291" />
<glyph unicode="&#x2008;" horiz-adv-x="218" />
<glyph unicode="&#x2009;" horiz-adv-x="349" />
<glyph unicode="&#x200a;" horiz-adv-x="97" />
<glyph unicode="&#x2010;" horiz-adv-x="659" d="M41 365v274h582v-274h-582z" />
<glyph unicode="&#x2011;" horiz-adv-x="659" d="M41 365v274h582v-274h-582z" />
<glyph unicode="&#x2012;" horiz-adv-x="659" d="M41 365v274h582v-274h-582z" />
<glyph unicode="&#x2013;" horiz-adv-x="811" d="M41 389v225h729v-225h-729z" />
<glyph unicode="&#x2014;" horiz-adv-x="1032" d="M41 389v225h950v-225h-950z" />
<glyph unicode="&#x2018;" horiz-adv-x="530" d="M31 1047q0 154 92.5 246.5t247.5 92.5q61 0 139 -20v-182q-65 18 -109 18q-115 0 -135 -76q28 7 47 7q79 0 129 -47t50 -125q0 -82 -58 -134.5t-147 -52.5q-105 0 -180.5 75.5t-75.5 197.5z" />
<glyph unicode="&#x2019;" horiz-adv-x="530" d="M20 797v182q52 -18 109 -18q114 0 133 73q-14 -4 -45 -4q-79 0 -127.5 45.5t-48.5 124.5q0 82 57 134t148 52q105 0 179.5 -75.5t74.5 -198.5q0 -153 -92.5 -244.5t-247.5 -91.5q-75 0 -140 21z" />
<glyph unicode="&#x201a;" horiz-adv-x="530" d="M20 -8q55 -19 109 -19q113 0 133 74q-28 -4 -45 -4q-79 0 -127.5 45.5t-48.5 124.5q0 83 57 135.5t148 52.5q105 0 179.5 -75.5t74.5 -198.5q0 -154 -92.5 -246t-247.5 -92q-75 0 -140 21v182z" />
<glyph unicode="&#x201c;" d="M31 1042q0 154 92.5 246t247.5 92q77 0 139 -20v-182q-52 18 -109 18q-115 0 -135 -76q24 6 47 6q79 0 129 -46t50 -124q0 -83 -57.5 -135.5t-147.5 -52.5q-105 0 -180.5 76t-75.5 198zM524 1042q0 154 92.5 246t247.5 92q78 0 140 -20v-182q-52 18 -109 18 q-115 0 -135 -76q24 6 47 6q79 0 127.5 -45.5t48.5 -124.5q0 -83 -57 -135.5t-148 -52.5q-105 0 -179.5 76t-74.5 198z" />
<glyph unicode="&#x201d;" d="M20 797v182q52 -18 109 -18q114 0 133 73q-14 -4 -45 -4q-79 0 -127.5 45.5t-48.5 124.5q0 82 57 134t148 52q105 0 179.5 -75.5t74.5 -198.5q0 -153 -92.5 -244.5t-247.5 -91.5q-75 0 -140 21zM514 797v182q52 -18 109 -18q114 0 133 73q-14 -4 -45 -4q-79 0 -129 46 t-50 124q0 82 58 134t147 52q105 0 179.5 -75.5t74.5 -198.5q0 -153 -91.5 -244.5t-246.5 -91.5q-74 0 -139 21z" />
<glyph unicode="&#x201e;" d="M20 -8q55 -19 109 -19q113 0 133 74q-28 -4 -45 -4q-79 0 -127.5 45.5t-48.5 124.5q0 83 57 135.5t148 52.5q105 0 179.5 -75.5t74.5 -198.5q0 -154 -92.5 -246t-247.5 -92q-75 0 -140 21v182zM514 -8q55 -19 109 -19q113 0 133 74q-28 -4 -45 -4q-79 0 -129 46t-50 124 q0 83 57.5 135.5t147.5 52.5q105 0 179.5 -75.5t74.5 -198.5q0 -154 -91.5 -246t-246.5 -92q-74 0 -139 21v182z" />
<glyph unicode="&#x2022;" horiz-adv-x="733" d="M45 504q0 135 89.5 218t236.5 83q145 0 231 -82t86 -219q0 -136 -88.5 -218.5t-237.5 -82.5q-145 0 -231 82t-86 219z" />
<glyph unicode="&#x2026;" horiz-adv-x="1591" d="M59 168q0 89 57 143t150 54q92 0 148.5 -54t56.5 -143q0 -88 -56.5 -142.5t-148.5 -54.5t-149.5 54.5t-57.5 142.5zM590 168q0 89 56.5 143t148.5 54q93 0 149.5 -54t56.5 -143q0 -88 -57 -142.5t-149 -54.5t-148.5 54.5t-56.5 142.5zM1122 168q0 89 56.5 143t148.5 54 t148.5 -54t56.5 -143q0 -88 -56.5 -142.5t-148.5 -54.5t-148.5 54.5t-56.5 142.5z" />
<glyph unicode="&#x202f;" horiz-adv-x="349" />
<glyph unicode="&#x2039;" horiz-adv-x="509" d="M45 426v152l416 305v-285l-139 -96l139 -96v-285z" />
<glyph unicode="&#x203a;" horiz-adv-x="509" d="M49 121v285l137 96l-137 96v285l416 -305v-152z" />
<glyph unicode="&#x205f;" horiz-adv-x="437" />
<glyph unicode="&#x20ac;" horiz-adv-x="1384" d="M12 442v144h113q-2 29 -2 92v27h-111v143h123q41 252 195.5 396.5t386.5 144.5q207 0 342 -154l51 125h219v-447h-299q-30 104 -84 156.5t-141 52.5q-103 0 -161 -64.5t-75 -209.5h361v-143h-365v-80v-39h283v-144h-268q24 -111 81 -157.5t152 -46.5q90 0 154 61t90 172 l280 -104q-34 -180 -178 -288t-385 -108q-252 0 -413.5 119.5t-213.5 351.5h-135z" />
<glyph unicode="&#x2122;" horiz-adv-x="1751" d="M29 1137v223h671v-223h-110l-10 61q-6 31 -25.5 40t-71.5 9h-4v-467q0 -23 4.5 -31t18.5 -8h49v-118h-383v118h49q15 0 20 7.5t5 31.5v467q-49 0 -68.5 -9.5t-26.5 -39.5l-8 -61h-110zM733 623v118h49q14 0 19.5 8t5.5 31v424q0 22 -5.5 29.5t-19.5 7.5h-49v119h410 l92 -334l94 334h402v-119h-39q-15 0 -20 -7t-5 -30v-424q0 -23 5 -31t20 -8h39v-118h-371v118h41q14 0 20 8.5t6 30.5v410l-165 -567h-152l-158 567v-410q0 -23 5.5 -31t19.5 -8h47v-118h-291z" />
<glyph unicode="&#xe000;" horiz-adv-x="1003" d="M0 0v1004h1004v-1004h-1004z" />
</font>
</defs>
</svg>
